<?xml version="1.0" encoding="UTF-8"?>
<svg xmlns="http://www.w3.org/2000/svg" xmlns:xlink="http://www.w3.org/1999/xlink" width="810pt" height="809.999993pt" viewBox="0 0 810 809.999993" version="1.2">
<defs>
<clipPath id="clip1">
  <path d="M 22.742188 150.796875 L 786.734375 150.796875 L 786.734375 659.296875 L 22.742188 659.296875 Z M 22.742188 150.796875 "/>
</clipPath>
</defs>
<g id="surface1">
<g clip-path="url(#clip1)" clip-rule="nonzero">
<path style=" stroke:none;fill-rule:nonzero;fill:rgb(100%,100%,100%);fill-opacity:1;" d="M 786.601562 659.402344 L 22.871094 659.402344 L 22.871094 150.796875 L 786.601562 150.796875 L 786.601562 659.402344 "/>
</g>
<path style=" stroke:none;fill-rule:nonzero;fill:rgb(93.728638%,92.549133%,96.859741%);fill-opacity:1;" d="M 723.152344 503.082031 C 720.550781 533.582031 716.738281 588.242188 679.917969 600.953125 L 94.59375 600.953125 C 94.59375 600.953125 64.90625 545.738281 60.5 479.660156 C 59.371094 462.800781 59.894531 445.234375 62.976562 427.695312 C 68.414062 396.707031 81.847656 365.808594 108.300781 339.0625 C 128.101562 319.042969 146.386719 310.148438 169.773438 294.304688 C 189.164062 281.167969 204.769531 250.457031 220.929688 233.894531 C 236.539062 217.894531 255.128906 206.816406 276.371094 199.957031 C 325.769531 183.988281 379.765625 192.878906 425.984375 214.550781 C 463.4375 232.109375 503.289062 247.085938 544.59375 252.019531 C 588.101562 257.21875 629.488281 250.296875 667 279.351562 C 688.515625 296.019531 703.851562 321.300781 707.652344 348.378906 C 711.445312 375.378906 697.824219 401.035156 701.503906 426.8125 C 701.546875 427.109375 701.589844 427.402344 701.636719 427.695312 C 704.589844 446.476562 715.664062 461.542969 720.769531 479.660156 C 722.796875 486.847656 723.882812 494.511719 723.152344 503.082031 "/>
<path style=" stroke:none;fill-rule:nonzero;fill:rgb(80.778503%,80.778503%,91.758728%);fill-opacity:1;" d="M 749.15625 624.546875 L 60.882812 624.546875 L 60.898438 624.53125 C 101.351562 580.507812 182.820312 589.960938 237.9375 592.570312 C 259.917969 593.617188 281.9375 594.207031 303.960938 594.40625 C 306.269531 594.433594 308.578125 594.449219 310.886719 594.457031 C 314.269531 594.480469 317.652344 594.492188 321.03125 594.496094 C 323.277344 594.496094 325.523438 594.496094 327.761719 594.492188 C 380.746094 594.355469 433.769531 592.171875 486.585938 589.007812 C 561.65625 584.496094 642.394531 576.117188 712.386719 605.003906 C 714.238281 605.769531 716.085938 606.5625 717.933594 607.386719 C 728.625 612.144531 739.058594 617.8125 749.15625 624.546875 "/>
<path style=" stroke:none;fill-rule:nonzero;fill:rgb(80.778503%,80.778503%,91.758728%);fill-opacity:1;" d="M 701.5 426.816406 C 701.546875 427.109375 701.589844 427.402344 701.636719 427.695312 L 62.976562 427.695312 C 68.414062 396.707031 81.847656 365.808594 108.300781 339.0625 C 128.097656 319.042969 146.386719 310.148438 169.773438 294.304688 C 189.164062 281.167969 204.769531 250.460938 220.929688 233.894531 C 236.539062 217.898438 255.128906 206.820312 276.371094 199.953125 C 325.769531 183.988281 379.765625 192.878906 425.984375 214.546875 C 463.4375 232.105469 503.285156 247.085938 544.59375 252.019531 C 588.101562 257.21875 629.488281 250.296875 666.996094 279.351562 C 688.511719 296.019531 703.851562 321.300781 707.652344 348.378906 C 711.445312 375.378906 697.824219 401.035156 701.5 426.816406 "/>
<path style=" stroke:none;fill-rule:evenodd;fill:rgb(23.919678%,23.919678%,41.958618%);fill-opacity:1;" d="M 348.929688 437.804688 L 374.769531 437.804688 C 375.898438 437.804688 376.824219 438.386719 376.824219 439.097656 L 376.824219 441.3125 C 376.824219 442.023438 375.898438 442.605469 374.769531 442.605469 L 348.929688 442.605469 C 347.800781 442.605469 346.875 442.023438 346.875 441.3125 L 346.875 439.097656 C 346.875 438.386719 347.800781 437.804688 348.929688 437.804688 "/>
<path style=" stroke:none;fill-rule:evenodd;fill:rgb(23.919678%,23.919678%,41.958618%);fill-opacity:1;" d="M 348.929688 398.492188 L 374.769531 398.492188 C 375.898438 398.492188 376.824219 399.074219 376.824219 399.78125 L 376.824219 402 C 376.824219 402.710938 375.898438 403.292969 374.769531 403.292969 L 348.929688 403.292969 C 347.800781 403.292969 346.875 402.710938 346.875 402 L 346.875 399.78125 C 346.875 399.074219 347.800781 398.492188 348.929688 398.492188 "/>
<path style=" stroke:none;fill-rule:evenodd;fill:rgb(65.879822%,63.139343%,88.62915%);fill-opacity:1;" d="M 591.523438 323.207031 C 591.523438 323.207031 587.367188 294.40625 563.355469 279.449219 C 563.355469 279.449219 551.765625 273.179688 544.089844 278.125 C 536.410156 283.074219 541.351562 296.804688 554.878906 299.363281 C 568.410156 301.921875 583.550781 306.308594 591.523438 323.207031 "/>
<path style=" stroke:none;fill-rule:evenodd;fill:rgb(47.44873%,47.44873%,69.799805%);fill-opacity:1;" d="M 592.929688 345.226562 C 592.929688 345.226562 588.589844 323.707031 578.347656 314.691406 C 568.113281 305.679688 559.21875 308.605469 558.5 314.738281 C 557.789062 320.871094 563.410156 325.988281 569.203125 328.730469 C 574.992188 331.46875 586.628906 333.277344 592.929688 345.226562 "/>
<path style=" stroke:none;fill-rule:evenodd;fill:rgb(65.879822%,63.139343%,88.62915%);fill-opacity:1;" d="M 598.929688 309.167969 C 598.929688 309.167969 601.375 264.214844 586.3125 234.820312 C 571.046875 205.039062 536.46875 220.59375 556.445312 243.902344 C 567.042969 256.261719 587.324219 275.941406 598.929688 309.167969 "/>
<path style=" stroke:none;fill-rule:evenodd;fill:rgb(47.44873%,47.44873%,69.799805%);fill-opacity:1;" d="M 612.390625 307.621094 C 612.390625 307.621094 608.152344 261.785156 616.960938 236.621094 C 625.769531 211.460938 634.804688 204.167969 643.96875 206.605469 C 653.128906 209.042969 656.917969 226.019531 645.234375 243.359375 C 633.546875 260.699219 623.050781 277.875 612.390625 307.621094 "/>
<path style=" stroke:none;fill-rule:evenodd;fill:rgb(65.879822%,63.139343%,88.62915%);fill-opacity:1;" d="M 618.058594 330.933594 C 618.058594 330.933594 622.21875 301.863281 635.917969 286.957031 C 649.621094 272.054688 665.730469 276.511719 668.300781 282.515625 C 670.871094 288.519531 668.808594 297.789062 657.941406 301.65625 C 647.074219 305.527344 631.414062 307.078125 618.058594 330.933594 "/>
<path style=" stroke:none;fill-rule:evenodd;fill:rgb(65.879822%,63.139343%,88.62915%);fill-opacity:1;" d="M 618.148438 359.28125 C 618.148438 359.28125 623.855469 329.3125 640.019531 320.429688 C 656.179688 311.546875 662.738281 328.003906 653.695312 334.699219 C 644.65625 341.398438 633.933594 341.496094 618.148438 359.28125 "/>
<path style=" stroke:none;fill-rule:evenodd;fill:rgb(23.919678%,23.919678%,41.958618%);fill-opacity:1;" d="M 638.621094 220.441406 C 638.84375 220.042969 638.691406 219.523438 638.28125 219.289062 C 637.871094 219.050781 637.363281 219.183594 637.144531 219.585938 C 637.023438 219.800781 595.09375 293.929688 610.367188 430.113281 C 610.414062 430.578125 610.835938 430.929688 611.296875 430.894531 C 611.757812 430.863281 612.089844 430.457031 612.039062 429.996094 C 596.828125 294.339844 638.503906 220.65625 638.621094 220.441406 "/>
<path style=" stroke:none;fill-rule:evenodd;fill:rgb(23.919678%,23.919678%,41.958618%);fill-opacity:1;" d="M 575.738281 237.96875 C 575.507812 237.554688 574.996094 237.390625 574.589844 237.601562 C 574.1875 237.8125 574.042969 238.316406 574.265625 238.730469 C 574.390625 238.957031 617.195312 315.375 603.582031 426.804688 C 603.527344 427.261719 603.851562 427.695312 604.316406 427.773438 C 604.773438 427.84375 605.195312 427.53125 605.25 427.074219 C 618.933594 315.097656 575.859375 238.191406 575.738281 237.96875 "/>
<path style=" stroke:none;fill-rule:evenodd;fill:rgb(23.919678%,23.919678%,41.958618%);fill-opacity:1;" d="M 552.234375 285.8125 C 551.769531 285.777344 551.378906 286.125 551.359375 286.585938 C 551.339844 287.050781 551.703125 287.457031 552.171875 287.492188 C 552.339844 287.507812 611.6875 290.773438 603.570312 426.855469 C 603.546875 427.320312 603.902344 427.734375 604.367188 427.777344 C 604.828125 427.824219 605.226562 427.484375 605.257812 427.019531 C 613.476562 289.210938 552.410156 285.828125 552.234375 285.8125 "/>
<path style=" stroke:none;fill-rule:evenodd;fill:rgb(23.919678%,23.919678%,41.958618%);fill-opacity:1;" d="M 570.308594 318.539062 C 569.859375 318.402344 569.398438 318.652344 569.273438 319.09375 C 569.15625 319.539062 569.421875 320.011719 569.871094 320.148438 C 569.984375 320.183594 608.230469 331.0625 599.949219 422.546875 C 599.90625 423.007812 600.253906 423.433594 600.714844 423.492188 C 601.179688 423.550781 601.589844 423.226562 601.628906 422.761719 C 610.039062 329.859375 570.421875 318.574219 570.308594 318.539062 "/>
<path style=" stroke:none;fill-rule:evenodd;fill:rgb(23.919678%,23.919678%,41.958618%);fill-opacity:1;" d="M 660.230469 288.800781 C 660.699219 288.796875 661.054688 288.417969 661.03125 287.953125 C 661.011719 287.488281 660.617188 287.113281 660.152344 287.117188 C 659.980469 287.121094 599.71875 286.3125 611.820312 419.679688 C 611.859375 420.140625 612.265625 420.503906 612.734375 420.480469 C 613.195312 420.460938 613.542969 420.066406 613.5 419.601562 C 601.558594 287.996094 660.066406 288.804688 660.230469 288.800781 "/>
<path style=" stroke:none;fill-rule:evenodd;fill:rgb(23.919678%,23.919678%,41.958618%);fill-opacity:1;" d="M 645.800781 328.535156 C 646.257812 328.453125 646.539062 328.011719 646.4375 327.554688 C 646.335938 327.097656 645.886719 326.792969 645.429688 326.878906 C 645.316406 326.898438 605.09375 333.441406 613.859375 423.921875 C 613.898438 424.390625 614.3125 424.746094 614.777344 424.71875 C 615.242188 424.695312 615.582031 424.296875 615.539062 423.832031 C 606.917969 334.84375 645.691406 328.554688 645.800781 328.535156 "/>
<path style=" stroke:none;fill-rule:evenodd;fill:rgb(90.979004%,38.42926%,54.899597%);fill-opacity:1;" d="M 618.980469 463.152344 L 596.386719 463.152344 C 594.707031 463.152344 593.304688 461.867188 593.15625 460.191406 L 588.726562 410.023438 C 588.558594 408.128906 590.050781 406.492188 591.957031 406.492188 L 623.414062 406.492188 C 625.316406 406.492188 626.8125 408.128906 626.644531 410.023438 L 622.210938 460.191406 C 622.066406 461.867188 620.660156 463.152344 618.980469 463.152344 "/>
<path style=" stroke:none;fill-rule:evenodd;fill:rgb(86.669922%,35.688782%,54.119873%);fill-opacity:1;" d="M 592.894531 457.160156 L 593.160156 460.191406 C 593.308594 461.867188 594.710938 463.148438 596.390625 463.148438 L 618.984375 463.148438 C 620.664062 463.148438 622.070312 461.867188 622.214844 460.191406 L 626.644531 410.023438 C 626.816406 408.125 625.320312 406.492188 623.417969 406.492188 L 622.601562 406.492188 L 618.382812 454.195312 C 618.234375 455.871094 616.832031 457.160156 615.152344 457.160156 L 592.894531 457.160156 "/>
<path style=" stroke:none;fill-rule:nonzero;fill:rgb(65.879822%,63.139343%,88.62915%);fill-opacity:1;" d="M 641.96875 520.796875 C 643.605469 524.019531 644.3125 527.757812 643.765625 531.609375 C 642.359375 541.582031 633.140625 548.519531 623.175781 547.109375 C 619.332031 546.5625 615.9375 544.847656 613.296875 542.375 C 615.902344 547.492188 620.871094 551.304688 626.980469 552.171875 C 636.9375 553.582031 646.15625 546.644531 647.566406 536.671875 C 648.433594 530.554688 646.152344 524.71875 641.96875 520.796875 "/>
<path style=" stroke:none;fill-rule:nonzero;fill:rgb(73.329163%,72.938538%,90.979004%);fill-opacity:1;" d="M 643.765625 531.609375 C 644.308594 527.757812 643.605469 524.019531 641.964844 520.796875 C 639.328125 518.324219 635.933594 516.609375 632.085938 516.0625 C 622.125 514.652344 612.910156 521.59375 611.5 531.558594 C 610.953125 535.414062 611.660156 539.152344 613.296875 542.375 C 615.9375 544.847656 619.332031 546.5625 623.175781 547.113281 C 633.140625 548.519531 642.355469 541.582031 643.765625 531.609375 "/>
<path style=" stroke:none;fill-rule:nonzero;fill:rgb(68.629456%,67.449951%,86.669922%);fill-opacity:1;" d="M 76.46875 479 C 75.882812 479 75.285156 478.832031 74.753906 478.488281 L 73.652344 477.773438 C 72.183594 476.824219 71.765625 474.867188 72.714844 473.398438 L 102.261719 427.695312 L 103.734375 427.695312 L 104.953125 437.605469 L 79.125 477.550781 C 78.519531 478.488281 77.507812 479 76.46875 479 "/>
<path style=" stroke:none;fill-rule:nonzero;fill:rgb(65.098572%,64.309692%,85.099792%);fill-opacity:1;" d="M 103.734375 427.695312 L 102.261719 427.695312 L 103.5 425.78125 L 103.734375 427.695312 "/>
<path style=" stroke:none;fill-rule:nonzero;fill:rgb(62.348938%,61.959839%,77.648926%);fill-opacity:1;" d="M 81.109375 478.238281 C 80.523438 478.238281 79.929688 478.074219 79.398438 477.730469 L 79.125 477.554688 L 104.953125 437.605469 L 105.613281 443.003906 L 83.769531 476.789062 C 83.164062 477.726562 82.148438 478.238281 81.109375 478.238281 "/>
<path style=" stroke:none;fill-rule:nonzero;fill:rgb(90.979004%,38.42926%,54.899597%);fill-opacity:1;" d="M 179.273438 454.527344 C 179.273438 463.890625 171.6875 471.484375 162.335938 471.484375 C 152.980469 471.484375 145.394531 463.890625 145.394531 454.527344 C 145.394531 445.160156 152.980469 437.566406 162.335938 437.566406 C 171.6875 437.566406 179.273438 445.160156 179.273438 454.527344 "/>
<path style=" stroke:none;fill-rule:nonzero;fill:rgb(23.919678%,23.919678%,41.958618%);fill-opacity:1;" d="M 156.511719 434.933594 C 150.257812 434.933594 145.328125 437.21875 144.554688 440.929688 C 144.085938 443.183594 145.246094 445.664062 147.820312 447.917969 C 150.496094 450.265625 154.351562 452.058594 158.667969 452.957031 C 167.449219 454.789062 175.410156 452.378906 176.410156 447.578125 C 177.410156 442.773438 171.078125 437.378906 162.296875 435.546875 C 160.300781 435.132812 158.347656 434.933594 156.511719 434.933594 M 164.414062 454.90625 C 162.46875 454.90625 160.4375 454.695312 158.394531 454.269531 C 153.855469 453.320312 149.785156 451.425781 146.9375 448.925781 C 143.984375 446.339844 142.671875 443.402344 143.242188 440.652344 C 143.816406 437.910156 146.191406 435.738281 149.933594 434.550781 C 153.539062 433.398438 158.027344 433.289062 162.566406 434.234375 C 167.109375 435.183594 171.175781 437.078125 174.027344 439.578125 C 176.980469 442.164062 178.289062 445.101562 177.71875 447.847656 L 177.71875 447.851562 C 177.148438 450.597656 174.769531 452.765625 171.03125 453.957031 C 169.046875 454.589844 166.792969 454.90625 164.414062 454.90625 "/>
<path style=" stroke:none;fill-rule:nonzero;fill:rgb(23.919678%,23.919678%,41.958618%);fill-opacity:1;" d="M 134.847656 474.035156 L 131.605469 472.914062 C 129.707031 472.257812 128.699219 470.183594 129.355469 468.285156 L 142.152344 431.195312 C 142.804688 429.296875 144.878906 428.289062 146.777344 428.945312 L 150.019531 430.066406 C 151.917969 430.722656 152.925781 432.796875 152.269531 434.695312 L 139.472656 471.785156 C 138.816406 473.683594 136.746094 474.691406 134.847656 474.035156 "/>
<path style=" stroke:none;fill-rule:nonzero;fill:rgb(47.44873%,47.44873%,69.799805%);fill-opacity:1;" d="M 116.804688 471.234375 L 114.046875 469.199219 C 112.425781 468.003906 112.082031 465.726562 113.273438 464.105469 L 136.519531 432.515625 C 137.710938 430.898438 139.988281 430.550781 141.605469 431.746094 L 144.367188 433.78125 C 145.984375 434.972656 146.332031 437.253906 145.140625 438.875 L 121.890625 470.464844 C 120.699219 472.082031 118.421875 472.425781 116.804688 471.234375 "/>
<path style=" stroke:none;fill-rule:nonzero;fill:rgb(68.629456%,67.449951%,86.669922%);fill-opacity:1;" d="M 173.878906 474.183594 L 136.648438 474.183594 C 137.914062 473.964844 139.023438 473.082031 139.472656 471.785156 L 145.394531 454.617188 C 145.445312 463.9375 153.007812 471.484375 162.335938 471.484375 C 171.6875 471.484375 179.273438 463.890625 179.273438 454.527344 C 179.273438 452.039062 178.738281 449.671875 177.773438 447.542969 C 178.191406 444.882812 176.871094 442.070312 174.027344 439.578125 C 171.175781 437.078125 167.109375 435.183594 162.566406 434.234375 C 160.527344 433.808594 158.496094 433.597656 156.550781 433.597656 C 155.125 433.597656 153.746094 433.710938 152.445312 433.9375 C 152.644531 432.273438 151.667969 430.636719 150.019531 430.066406 L 146.777344 428.945312 C 146.382812 428.808594 145.984375 428.742188 145.589844 428.742188 C 144.082031 428.742188 142.671875 429.691406 142.152344 431.195312 L 141.890625 431.957031 L 141.605469 431.746094 C 140.957031 431.265625 140.203125 431.035156 139.453125 431.035156 C 138.335938 431.035156 137.234375 431.546875 136.519531 432.515625 L 113.273438 464.105469 C 112.082031 465.726562 112.425781 468.003906 114.046875 469.199219 L 116.804688 471.234375 C 117.457031 471.714844 118.210938 471.945312 118.960938 471.945312 C 120.078125 471.945312 121.179688 471.433594 121.890625 470.464844 L 134.527344 453.296875 L 129.355469 468.285156 C 128.699219 470.183594 129.707031 472.257812 131.605469 472.914062 L 134.847656 474.035156 C 135.035156 474.101562 135.226562 474.152344 135.417969 474.183594 L 116.515625 474.183594 C 112.476562 474.183594 109.066406 471.164062 108.574219 467.148438 L 105.613281 443.003906 L 115.511719 427.695312 L 186.503906 427.695312 L 181.824219 467.117188 C 181.347656 471.148438 177.933594 474.183594 173.878906 474.183594 M 176.222656 444.8125 C 173.160156 440.433594 168.082031 437.566406 162.335938 437.566406 C 156.957031 437.566406 152.164062 440.078125 149.0625 443.988281 L 152.039062 435.363281 C 153.410156 435.082031 154.917969 434.933594 156.511719 434.933594 C 158.347656 434.933594 160.300781 435.132812 162.296875 435.546875 C 169.414062 437.035156 174.921875 440.859375 176.222656 444.8125 M 104.953125 437.605469 L 111.359375 427.695312 L 104.953125 437.605469 "/>
<path style=" stroke:none;fill-rule:nonzero;fill:rgb(65.098572%,64.309692%,85.099792%);fill-opacity:1;" d="M 186.503906 427.695312 L 115.511719 427.695312 L 116.246094 426.558594 C 117.195312 425.089844 116.777344 423.132812 115.3125 422.183594 L 115.039062 422.007812 L 111.359375 427.695312 L 115.039062 422.007812 C 115.988281 420.539062 115.566406 418.578125 114.101562 417.628906 L 113 416.914062 C 112.46875 416.570312 111.871094 416.40625 111.285156 416.40625 C 110.246094 416.40625 109.230469 416.914062 108.628906 417.851562 L 103.5 425.78125 L 102.746094 419.617188 L 101.558594 419.617188 C 98.894531 419.617188 96.730469 417.453125 96.730469 414.785156 C 96.730469 412.117188 98.894531 409.953125 101.558594 409.953125 L 189.230469 409.953125 C 191.898438 409.953125 194.058594 412.117188 194.058594 414.785156 C 194.058594 417.453125 191.898438 419.617188 189.230469 419.617188 L 187.460938 419.617188 L 186.503906 427.695312 "/>
<path style=" stroke:none;fill-rule:nonzero;fill:rgb(61.569214%,60.389709%,83.918762%);fill-opacity:1;" d="M 104.953125 437.605469 L 103.734375 427.695312 L 111.359375 427.695312 L 104.953125 437.605469 "/>
<path style=" stroke:none;fill-rule:nonzero;fill:rgb(60.778809%,59.609985%,83.529663%);fill-opacity:1;" d="M 111.359375 427.695312 L 103.734375 427.695312 L 103.5 425.78125 L 108.628906 417.851562 C 109.230469 416.914062 110.246094 416.40625 111.285156 416.40625 C 111.871094 416.40625 112.46875 416.570312 113 416.914062 L 114.101562 417.628906 C 115.566406 418.578125 115.988281 420.539062 115.039062 422.007812 L 111.359375 427.695312 "/>
<path style=" stroke:none;fill-rule:nonzero;fill:rgb(59.999084%,59.21936%,81.17981%);fill-opacity:1;" d="M 105.613281 443.003906 L 104.953125 437.605469 L 111.359375 427.695312 L 115.511719 427.695312 L 105.613281 443.003906 "/>
<path style=" stroke:none;fill-rule:nonzero;fill:rgb(59.21936%,58.428955%,81.17981%);fill-opacity:1;" d="M 115.511719 427.695312 L 111.359375 427.695312 L 115.039062 422.007812 L 115.3125 422.183594 C 116.777344 423.132812 117.195312 425.089844 116.246094 426.558594 L 115.511719 427.695312 "/>
<path style=" stroke:none;fill-rule:nonzero;fill:rgb(67.83905%,52.549744%,75.289917%);fill-opacity:1;" d="M 162.335938 471.484375 C 153.007812 471.484375 145.445312 463.9375 145.394531 454.617188 L 147.261719 449.207031 C 150.089844 451.5625 154.023438 453.355469 158.394531 454.269531 C 160.4375 454.695312 162.46875 454.90625 164.414062 454.90625 C 166.792969 454.90625 169.046875 454.589844 171.03125 453.957031 C 174.769531 452.765625 177.148438 450.597656 177.71875 447.851562 L 177.71875 447.847656 C 177.738281 447.746094 177.757812 447.644531 177.773438 447.542969 C 178.738281 449.671875 179.273438 452.039062 179.273438 454.527344 C 179.273438 463.890625 171.6875 471.484375 162.335938 471.484375 M 164.453125 453.570312 C 162.617188 453.570312 160.664062 453.375 158.667969 452.957031 C 154.351562 452.058594 150.496094 450.265625 147.820312 447.917969 C 147.789062 447.894531 147.761719 447.867188 147.730469 447.84375 L 149.0625 443.988281 C 152.164062 440.078125 156.957031 437.566406 162.335938 437.566406 C 168.082031 437.566406 173.160156 440.433594 176.222656 444.8125 C 176.523438 445.738281 176.597656 446.664062 176.410156 447.578125 C 175.636719 451.289062 170.707031 453.570312 164.453125 453.570312 "/>
<path style=" stroke:none;fill-rule:nonzero;fill:rgb(49.798584%,48.629761%,71.759033%);fill-opacity:1;" d="M 164.414062 454.90625 C 162.46875 454.90625 160.4375 454.695312 158.394531 454.269531 C 154.023438 453.355469 150.089844 451.5625 147.261719 449.207031 L 147.730469 447.84375 C 147.761719 447.867188 147.789062 447.894531 147.820312 447.917969 C 150.496094 450.265625 154.351562 452.058594 158.667969 452.957031 C 160.664062 453.375 162.617188 453.570312 164.453125 453.570312 C 170.707031 453.570312 175.636719 451.289062 176.410156 447.578125 C 176.597656 446.664062 176.523438 445.738281 176.222656 444.8125 C 174.921875 440.859375 169.414062 437.035156 162.296875 435.546875 C 160.300781 435.132812 158.347656 434.933594 156.511719 434.933594 C 154.917969 434.933594 153.410156 435.082031 152.039062 435.363281 L 152.269531 434.695312 C 152.355469 434.445312 152.414062 434.191406 152.445312 433.9375 C 153.746094 433.710938 155.125 433.597656 156.550781 433.597656 C 158.496094 433.597656 160.527344 433.808594 162.566406 434.234375 C 167.109375 435.183594 171.175781 437.078125 174.027344 439.578125 C 176.871094 442.070312 178.191406 444.882812 177.773438 447.542969 C 177.757812 447.644531 177.738281 447.746094 177.71875 447.847656 L 177.71875 447.851562 C 177.148438 450.597656 174.769531 452.765625 171.03125 453.957031 C 169.046875 454.589844 166.792969 454.90625 164.414062 454.90625 "/>
<path style=" stroke:none;fill-rule:nonzero;fill:rgb(49.798584%,48.629761%,71.759033%);fill-opacity:1;" d="M 136.648438 474.183594 L 135.417969 474.183594 C 135.226562 474.152344 135.035156 474.101562 134.847656 474.035156 L 131.605469 472.914062 C 129.707031 472.257812 128.699219 470.183594 129.355469 468.285156 L 134.527344 453.296875 L 145.140625 438.875 C 146.332031 437.253906 145.984375 434.972656 144.367188 433.78125 L 141.890625 431.957031 L 142.152344 431.195312 C 142.671875 429.691406 144.082031 428.742188 145.589844 428.742188 C 145.984375 428.742188 146.382812 428.808594 146.777344 428.945312 L 150.019531 430.066406 C 151.667969 430.636719 152.644531 432.273438 152.445312 433.9375 C 152.414062 434.191406 152.355469 434.445312 152.269531 434.695312 L 152.039062 435.363281 L 149.0625 443.988281 L 147.730469 447.84375 L 147.261719 449.207031 L 145.394531 454.617188 L 139.472656 471.785156 C 139.023438 473.082031 137.914062 473.964844 136.648438 474.183594 "/>
<path style=" stroke:none;fill-rule:nonzero;fill:rgb(56.079102%,55.288696%,79.219055%);fill-opacity:1;" d="M 118.960938 471.945312 C 118.210938 471.945312 117.457031 471.714844 116.804688 471.234375 L 114.046875 469.199219 C 112.425781 468.003906 112.082031 465.726562 113.273438 464.105469 L 136.519531 432.515625 C 137.234375 431.546875 138.335938 431.035156 139.453125 431.035156 C 140.203125 431.035156 140.957031 431.265625 141.605469 431.746094 L 141.890625 431.957031 L 144.367188 433.78125 C 145.984375 434.972656 146.332031 437.253906 145.140625 438.875 L 134.527344 453.296875 L 121.890625 470.464844 C 121.179688 471.433594 120.078125 471.945312 118.960938 471.945312 "/>
<path style=" stroke:none;fill-rule:nonzero;fill:rgb(93.728638%,39.608765%,54.119873%);fill-opacity:1;" d="M 165.886719 569.554688 C 165.984375 569.40625 166.085938 569.261719 166.1875 569.125 C 169.121094 565.105469 173.949219 562.761719 177.414062 559.21875 C 178.398438 558.210938 179.136719 556.605469 180.277344 555.792969 C 181.074219 555.226562 182.003906 555.570312 182.851562 555.953125 C 183.59375 556.292969 184.078125 557.074219 184.335938 557.800781 C 184.835938 559.226562 183.878906 560.722656 183.4375 562.003906 C 181.855469 566.558594 178.953125 570.382812 175.484375 573.699219 C 173.964844 575.152344 172.300781 576.839844 170.210938 577.492188 C 168.488281 578.03125 166.316406 577.421875 165.253906 575.914062 C 163.828125 573.902344 164.703125 571.359375 165.886719 569.554688 "/>
<path style=" stroke:none;fill-rule:nonzero;fill:rgb(93.728638%,39.608765%,54.119873%);fill-opacity:1;" d="M 156.753906 552.894531 C 158.960938 552.988281 161.164062 553.222656 163.355469 553.492188 C 165.339844 553.734375 167.394531 554.003906 169.269531 554.726562 C 170.007812 555.007812 170.566406 555.125 171.082031 555.75 C 171.441406 556.1875 171.816406 556.777344 171.863281 557.355469 C 171.921875 558.058594 170.636719 558.597656 169.609375 558.867188 C 167.722656 560.480469 165.445312 561.664062 163.144531 562.515625 C 159.976562 563.695312 156.617188 564.636719 153.242188 564.886719 C 150.558594 565.082031 147.484375 564.539062 145.4375 562.671875 C 144.636719 561.945312 144.417969 560.761719 144.339844 559.683594 C 144.074219 558.214844 144.691406 556.554688 145.671875 555.539062 C 148.359375 552.75 153.207031 552.75 156.753906 552.894531 "/>
<path style=" stroke:none;fill-rule:nonzero;fill:rgb(93.728638%,39.608765%,54.119873%);fill-opacity:1;" d="M 143.578125 534.140625 C 143.933594 533.660156 144.386719 533.226562 144.953125 532.863281 C 146.203125 532.0625 147.804688 531.816406 149.253906 531.714844 C 152.34375 531.5 155.414062 532.410156 158.257812 533.558594 C 162.09375 535.109375 166.359375 536.882812 169.523438 539.625 C 170.179688 540.191406 170.636719 541.003906 170.230469 541.863281 C 169.671875 543.042969 168.785156 543.574219 167.570312 543.902344 C 166.332031 544.238281 165.003906 544.144531 163.679688 544.054688 C 162.820312 543.992188 161.964844 543.933594 161.140625 543.992188 C 158.835938 544.148438 156.5625 544.597656 154.25 544.574219 C 150.90625 544.542969 147.070312 543.957031 144.542969 541.535156 C 142.457031 539.535156 141.949219 536.339844 143.578125 534.140625 "/>
<path style=" stroke:none;fill-rule:nonzero;fill:rgb(93.728638%,39.608765%,54.119873%);fill-opacity:1;" d="M 159.300781 542.5625 C 160.027344 540.355469 161.246094 538.351562 163.0625 536.683594 C 164.132812 535.699219 165.425781 534.714844 166.726562 534.054688 C 168.695312 533.058594 170.875 532.433594 173.078125 532.304688 C 174.785156 532.207031 176.644531 532.28125 178.328125 532.613281 C 179.851562 532.914062 181.394531 533.328125 182.804688 534.015625 C 183.40625 534.308594 183.988281 534.65625 184.535156 535.042969 C 184.972656 535.355469 185.71875 536.367188 186.183594 536.492188 C 186.246094 536.507812 186.300781 536.519531 186.363281 536.535156 C 187.1875 536.773438 187.875 538.035156 188.085938 538.789062 C 188.378906 539.835938 187.566406 540.585938 187.089844 541.382812 C 186.734375 541.980469 186.703125 542.855469 186.582031 543.527344 C 186.429688 544.375 186.167969 545.207031 185.992188 546.054688 C 185.425781 548.742188 184.542969 551.242188 183.386719 553.722656 C 182.769531 555.046875 181.964844 556.21875 181.175781 557.441406 C 180.480469 558.503906 179.617188 559.511719 178.589844 560.269531 C 177.609375 560.988281 176.578125 561.433594 175.367188 561.578125 C 173.96875 561.746094 172.316406 561.875 170.929688 561.617188 C 165.78125 560.648438 160.71875 557.558594 159.128906 552.246094 C 158.707031 550.832031 158.410156 549.148438 158.449219 547.664062 C 158.496094 545.890625 158.765625 544.171875 159.300781 542.5625 "/>
<path style=" stroke:none;fill-rule:nonzero;fill:rgb(67.83905%,29.019165%,16.079712%);fill-opacity:1;" d="M 163.0625 536.683594 C 163.242188 536.519531 163.429688 536.355469 163.617188 536.191406 C 163.429688 536.351562 163.242188 536.519531 163.0625 536.683594 "/>
<path style=" stroke:none;fill-rule:nonzero;fill:rgb(87.838745%,38.819885%,54.119873%);fill-opacity:1;" d="M 172.625 561.765625 C 173.554688 561.769531 174.507812 561.683594 175.367188 561.578125 C 176.578125 561.433594 177.609375 560.988281 178.589844 560.269531 L 178.617188 560.246094 C 178.285156 559.78125 177.980469 559.289062 177.699219 558.777344 C 176.421875 556.445312 175.695312 553.90625 175.71875 551.28125 C 175.722656 550.75 175.757812 550.214844 175.824219 549.679688 C 175.84375 549.507812 175.871094 549.339844 175.894531 549.171875 C 175.761719 549.5 175.636719 549.835938 175.523438 550.171875 C 174.542969 553.019531 174.96875 556.039062 175.671875 558.894531 C 175.699219 559.015625 175.632812 559.152344 175.507812 559.179688 C 174.921875 559.3125 174.324219 559.367188 173.714844 559.363281 C 170.875 559.339844 167.875 557.960938 165.621094 556.464844 C 162.910156 554.667969 160.957031 551.824219 160.277344 548.625 C 159.058594 542.871094 162.160156 537.710938 166.449219 534.203125 C 165.460938 534.738281 164.484375 535.449219 163.617188 536.191406 C 163.429688 536.355469 163.242188 536.519531 163.0625 536.683594 C 161.246094 538.351562 160.027344 540.355469 159.300781 542.5625 C 158.765625 544.171875 158.496094 545.890625 158.449219 547.664062 C 158.449219 547.726562 158.445312 547.792969 158.445312 547.855469 C 158.433594 549.292969 158.726562 550.890625 159.128906 552.246094 C 159.355469 552.996094 159.648438 553.703125 160 554.363281 C 161.046875 556.320312 162.613281 557.894531 164.457031 559.089844 C 166.402344 560.347656 168.660156 561.191406 170.929688 561.617188 C 171.464844 561.71875 172.039062 561.757812 172.625 561.765625 "/>
<path style=" stroke:none;fill-rule:nonzero;fill:rgb(93.728638%,39.608765%,54.119873%);fill-opacity:1;" d="M 204.347656 537.546875 C 206.820312 536.375 210.101562 537.265625 211.917969 539.199219 C 213.921875 541.332031 213.109375 544.335938 211.273438 546.226562 C 210.421875 547.109375 209.050781 547.496094 207.886719 547.699219 C 207.445312 547.78125 206.402344 547.863281 205.75 547.625 C 205.691406 547.648438 205.632812 547.664062 205.5625 547.652344 C 204.988281 547.570312 204.5625 547.203125 204.089844 546.886719 C 203.71875 546.632812 203.371094 546.378906 203.113281 545.996094 C 202.859375 545.609375 202.660156 545.183594 202.550781 544.742188 C 201.664062 542.371094 201.785156 538.769531 204.347656 537.546875 "/>
<path style=" stroke:none;fill-rule:nonzero;fill:rgb(92.158508%,78.819275%,70.199585%);fill-opacity:1;" d="M 204.550781 537.457031 C 204.699219 537.394531 204.847656 537.339844 205 537.289062 C 204.847656 537.339844 204.699219 537.394531 204.550781 537.457031 "/>
<path style=" stroke:none;fill-rule:nonzero;fill:rgb(74.119568%,38.42926%,23.919678%);fill-opacity:1;" d="M 204.347656 537.546875 C 204.414062 537.515625 204.484375 537.484375 204.550781 537.457031 C 204.484375 537.484375 204.414062 537.515625 204.347656 537.546875 "/>
<path style=" stroke:none;fill-rule:nonzero;fill:rgb(92.158508%,78.819275%,70.199585%);fill-opacity:1;" d="M 205.023438 537.285156 L 205.027344 537.28125 Z M 205.015625 537.289062 L 205.019531 537.285156 Z M 205.003906 537.289062 L 205.011719 537.289062 L 205.003906 537.289062 "/>
<path style=" stroke:none;fill-rule:nonzero;fill:rgb(82.348633%,39.99939%,24.308777%);fill-opacity:1;" d="M 191.160156 562.972656 L 191.179688 562.859375 C 191.394531 562.289062 191.886719 562.125 192.390625 561.828125 C 193.09375 561.421875 193.734375 561.03125 194.507812 560.773438 C 195.921875 560.304688 197.3125 560.285156 198.664062 560.773438 L 198.757812 560.753906 C 201.609375 561.398438 201.851562 564.269531 201.453125 566.769531 C 201.09375 569.066406 199.351562 572.085938 196.78125 572.335938 C 193.867188 572.609375 191.394531 571.636719 189.976562 568.957031 C 188.863281 566.859375 189.320312 564.257812 191.160156 562.972656 "/>
<path style=" stroke:none;fill-rule:nonzero;fill:rgb(93.728638%,39.608765%,54.119873%);fill-opacity:1;" d="M 191.160156 562.972656 L 191.179688 562.859375 C 191.394531 562.289062 191.886719 562.125 192.390625 561.828125 C 193.09375 561.421875 193.734375 561.03125 194.507812 560.773438 C 195.921875 560.304688 197.3125 560.285156 198.664062 560.773438 L 198.757812 560.753906 C 201.609375 561.398438 201.851562 564.269531 201.453125 566.769531 C 201.09375 569.066406 199.351562 572.085938 196.78125 572.335938 C 193.867188 572.609375 191.394531 571.636719 189.976562 568.957031 C 188.863281 566.859375 189.320312 564.257812 191.160156 562.972656 "/>
<path style=" stroke:none;fill-rule:nonzero;fill:rgb(92.158508%,78.819275%,70.199585%);fill-opacity:1;" d="M 189.996094 569 L 189.976562 568.957031 C 189.566406 568.1875 189.371094 567.351562 189.375 566.535156 C 189.371094 567.351562 189.566406 568.1875 189.976562 568.957031 Z M 190.003906 569.011719 L 189.996094 569 Z M 190.007812 569.019531 L 190.007812 569.015625 L 190.007812 569.019531 "/>
<path style=" stroke:none;fill-rule:nonzero;fill:rgb(79.998779%,36.859131%,52.549744%);fill-opacity:1;" d="M 207.195312 545.386719 C 207.269531 545.34375 207.34375 545.292969 207.414062 545.234375 C 207.527344 545.144531 207.636719 545.039062 207.738281 544.929688 C 208.113281 544.625 208.417969 544.207031 208.554688 543.816406 C 208.925781 542.738281 208.871094 541.398438 207.878906 540.664062 C 207.4375 540.335938 206.882812 540.128906 206.351562 540.125 C 205.898438 540.121094 205.457031 540.265625 205.109375 540.605469 C 206.089844 542.082031 206.78125 543.703125 207.195312 545.386719 "/>
<path style=" stroke:none;fill-rule:nonzero;fill:rgb(93.728638%,39.608765%,54.119873%);fill-opacity:1;" d="M 175.824219 549.679688 C 176.148438 547.074219 177.105469 544.515625 178.347656 542.3125 C 178.914062 541.304688 179.589844 540.226562 180.378906 539.382812 C 185.25 534.160156 194.160156 532.488281 200.308594 536.265625 C 201.925781 537.257812 203.832031 538.765625 204.929688 540.339844 C 209.1875 546.460938 208.335938 555.195312 203.324219 560.589844 C 202.039062 561.96875 200.335938 563.511719 198.648438 564.375 C 195.15625 566.15625 191.242188 566.851562 187.386719 565.992188 C 183.28125 565.074219 179.753906 562.535156 177.699219 558.777344 C 176.167969 555.976562 175.425781 552.875 175.824219 549.679688 "/>
<path style=" stroke:none;fill-rule:nonzero;fill:rgb(23.919678%,23.529053%,23.139954%);fill-opacity:1;" d="M 193.511719 541.816406 C 193.792969 541.207031 194.6875 541.175781 195.121094 541.609375 C 195.511719 542.007812 195.511719 542.671875 195.117188 543.066406 C 194.691406 543.496094 193.789062 543.476562 193.515625 542.859375 C 193.351562 542.476562 193.339844 542.195312 193.511719 541.816406 "/>
<path style=" stroke:none;fill-rule:nonzero;fill:rgb(23.919678%,23.529053%,23.139954%);fill-opacity:1;" d="M 190.398438 555.386719 C 190.941406 555.394531 191.394531 555.847656 191.394531 556.394531 C 191.398438 556.9375 190.941406 557.402344 190.398438 557.398438 C 189.855469 557.394531 189.402344 556.945312 189.398438 556.394531 C 189.398438 555.847656 189.855469 555.386719 190.398438 555.386719 "/>
<path style=" stroke:none;fill-rule:nonzero;fill:rgb(23.919678%,23.529053%,23.139954%);fill-opacity:1;" d="M 185.761719 545.363281 C 186.257812 544.792969 187.039062 544.417969 187.695312 544.726562 C 188.703125 545.207031 188.355469 546.878906 187.960938 547.664062 C 187.601562 548.378906 186.640625 549.03125 185.945312 548.339844 C 185.714844 548.109375 185.578125 547.796875 185.46875 547.484375 C 185.351562 547.148438 185.253906 546.796875 185.277344 546.441406 C 185.296875 546.078125 185.484375 545.6875 185.761719 545.363281 "/>
<path style=" stroke:none;fill-rule:nonzero;fill:rgb(87.838745%,38.819885%,54.119873%);fill-opacity:1;" d="M 164.6875 545.90625 C 164.78125 545.761719 164.886719 545.617188 164.984375 545.476562 C 167.921875 541.457031 172.746094 539.113281 176.210938 535.570312 C 177.195312 534.5625 177.9375 532.960938 179.078125 532.148438 C 179.875 531.582031 180.804688 531.925781 181.648438 532.304688 C 182.394531 532.644531 182.875 533.425781 183.132812 534.152344 C 183.636719 535.582031 182.675781 537.074219 182.234375 538.355469 C 180.65625 542.914062 177.75 546.738281 174.285156 550.050781 C 172.765625 551.503906 171.097656 553.195312 169.011719 553.84375 C 167.289062 554.382812 165.117188 553.773438 164.054688 552.269531 C 162.628906 550.253906 163.503906 547.710938 164.6875 545.90625 "/>
<path style=" stroke:none;fill-rule:evenodd;fill:rgb(65.098572%,65.098572%,78.819275%);fill-opacity:1;" d="M 464.582031 460.644531 L 259.117188 460.644531 C 255.742188 460.644531 253.007812 457.902344 253.007812 454.523438 L 253.007812 387.90625 C 253.007812 384.53125 255.742188 381.789062 259.117188 381.789062 L 464.582031 381.789062 C 467.957031 381.789062 470.691406 384.53125 470.691406 387.90625 L 470.691406 454.523438 C 470.691406 457.902344 467.957031 460.644531 464.582031 460.644531 "/>
<path style=" stroke:none;fill-rule:nonzero;fill:rgb(21.958923%,21.958923%,37.649536%);fill-opacity:1;" d="M 270.726562 395.132812 C 267.355469 395.132812 264.617188 397.878906 264.617188 401.25 L 264.617188 407.5 C 264.617188 410.875 267.355469 413.617188 270.726562 413.617188 L 452.976562 413.617188 C 456.34375 413.617188 459.085938 410.875 459.085938 407.5 L 459.085938 401.25 C 459.085938 397.878906 456.34375 395.132812 452.976562 395.132812 Z M 452.976562 414.886719 L 270.726562 414.886719 C 266.65625 414.886719 263.347656 411.574219 263.347656 407.5 L 263.347656 401.25 C 263.347656 397.175781 266.65625 393.863281 270.726562 393.863281 L 452.976562 393.863281 C 457.042969 393.863281 460.355469 397.175781 460.355469 401.25 L 460.355469 407.5 C 460.355469 411.574219 457.042969 414.886719 452.976562 414.886719 "/>
<path style=" stroke:none;fill-rule:nonzero;fill:rgb(21.958923%,21.958923%,37.649536%);fill-opacity:1;" d="M 270.726562 430.746094 C 267.355469 430.746094 264.617188 433.488281 264.617188 436.863281 L 264.617188 443.117188 C 264.617188 446.488281 267.355469 449.230469 270.726562 449.230469 L 452.976562 449.230469 C 456.34375 449.230469 459.085938 446.488281 459.085938 443.117188 L 459.085938 436.863281 C 459.085938 433.488281 456.34375 430.746094 452.976562 430.746094 Z M 452.976562 450.503906 L 270.726562 450.503906 C 266.65625 450.503906 263.347656 447.191406 263.347656 443.117188 L 263.347656 436.863281 C 263.347656 432.789062 266.65625 429.476562 270.726562 429.476562 L 452.976562 429.476562 C 457.042969 429.476562 460.355469 432.789062 460.355469 436.863281 L 460.355469 443.117188 C 460.355469 447.191406 457.042969 450.503906 452.976562 450.503906 "/>
<path style=" stroke:none;fill-rule:nonzero;fill:rgb(21.958923%,21.958923%,37.649536%);fill-opacity:1;" d="M 487.972656 245.902344 L 487.972656 368.550781 C 487.972656 374.125 483.457031 378.640625 477.890625 378.640625 L 247.839844 378.640625 C 242.273438 378.640625 237.757812 374.125 237.757812 368.550781 L 237.757812 245.902344 C 237.757812 240.328125 242.273438 235.808594 247.839844 235.808594 L 477.890625 235.808594 C 482.441406 235.808594 486.292969 238.832031 487.542969 242.980469 C 487.820312 243.90625 487.972656 244.882812 487.972656 245.902344 "/>
<path style=" stroke:none;fill-rule:nonzero;fill:rgb(93.728638%,92.549133%,96.859741%);fill-opacity:1;" d="M 474.492188 253.597656 L 474.492188 360.851562 C 474.492188 366.425781 469.980469 370.941406 464.414062 370.941406 L 261.320312 370.941406 C 255.753906 370.941406 251.242188 366.425781 251.242188 360.851562 L 251.242188 253.597656 C 251.242188 252.945312 251.300781 252.316406 251.417969 251.703125 C 252.304688 247.03125 256.402344 243.507812 261.320312 243.507812 L 464.414062 243.507812 C 469.980469 243.507812 474.492188 248.019531 474.492188 253.597656 "/>
<path style=" stroke:none;fill-rule:evenodd;fill:rgb(58.81958%,58.81958%,70.979309%);fill-opacity:1;" d="M 484.511719 387.398438 L 241.410156 387.398438 C 238.832031 387.398438 236.742188 385.304688 236.742188 382.726562 L 236.742188 380.855469 C 236.742188 378.277344 238.832031 376.183594 241.410156 376.183594 L 484.511719 376.183594 C 487.085938 376.183594 489.175781 378.277344 489.175781 380.855469 L 489.175781 382.726562 C 489.175781 385.304688 487.085938 387.398438 484.511719 387.398438 "/>
<path style=" stroke:none;fill-rule:nonzero;fill:rgb(90.979004%,38.42926%,54.899597%);fill-opacity:1;" d="M 474.492188 351.84375 L 474.492188 360.851562 C 474.492188 366.425781 469.980469 370.941406 464.414062 370.941406 L 261.320312 370.941406 C 255.753906 370.941406 251.242188 366.425781 251.242188 360.851562 L 251.242188 315.042969 C 258.628906 307.5625 275.203125 296.050781 301.386719 309.457031 C 337.433594 327.90625 342.578125 334.519531 379.632812 338.589844 C 416.214844 342.609375 458.273438 333.25 474.492188 351.84375 "/>
<path style=" stroke:none;fill-rule:evenodd;fill:rgb(65.879822%,63.139343%,88.62915%);fill-opacity:1;" d="M 282.027344 257.105469 C 276.910156 246.847656 267.128906 253.355469 270.898438 260.621094 C 258.738281 263.574219 264.46875 275.21875 273.839844 269.488281 C 273.199219 279.421875 286.886719 283.070312 287.976562 270.066406 C 289.570312 274.726562 300.941406 278.308594 299.332031 268.507812 C 299.25 267.96875 303.132812 269.488281 305.503906 267.863281 C 307.539062 266.464844 309.257812 261.769531 305.390625 259.03125 C 309.148438 255.085938 302.953125 249.753906 297.171875 256.621094 C 297.121094 256.59375 297.003906 244.425781 290.152344 254.261719 C 289.714844 247.023438 281.113281 247.039062 282.027344 257.105469 "/>
<path style=" stroke:none;fill-rule:evenodd;fill:rgb(65.879822%,63.139343%,88.62915%);fill-opacity:1;" d="M 440.859375 296.285156 C 440.667969 284.824219 429.039062 286.46875 429.300781 294.648438 C 417.0625 292.058594 417.210938 305.039062 428.136719 303.917969 C 423.273438 312.601562 434.046875 321.808594 440.636719 310.550781 C 440.066406 315.441406 448.773438 323.585938 451.550781 314.054688 C 451.703125 313.527344 454.554688 316.582031 457.398438 316.136719 C 459.835938 315.753906 463.410156 312.265625 461.101562 308.125 C 466.191406 306.1875 462.902344 298.699219 454.730469 302.394531 C 454.699219 302.347656 459.832031 291.320312 449.414062 297.230469 C 452.140625 290.515625 444.375 286.8125 440.859375 296.285156 "/>
<path style=" stroke:none;fill-rule:evenodd;fill:rgb(73.329163%,72.938538%,90.979004%);fill-opacity:1;" d="M 409.925781 334.21875 C 409.925781 336.082031 409.816406 337.921875 409.613281 339.730469 C 399.628906 339.78125 389.433594 339.667969 379.632812 338.589844 C 348.582031 335.179688 339.9375 329.988281 316.746094 317.535156 C 323.523438 299.179688 341.160156 286.089844 361.851562 286.089844 C 388.402344 286.089844 409.925781 307.640625 409.925781 334.21875 "/>
<path style=" stroke:none;fill-rule:nonzero;fill:rgb(73.329163%,72.938538%,90.979004%);fill-opacity:1;" d="M 283.175781 291.097656 C 293.320312 295.117188 302.835938 300.511719 311.859375 306.621094 C 313.082031 307.449219 314.226562 305.46875 313.015625 304.644531 C 303.816406 298.421875 294.121094 292.984375 283.785156 288.890625 C 282.414062 288.347656 281.820312 290.5625 283.175781 291.097656 "/>
<path style=" stroke:none;fill-rule:nonzero;fill:rgb(73.329163%,72.938538%,90.979004%);fill-opacity:1;" d="M 320.410156 252.691406 C 326.929688 261.578125 332.1875 271.277344 336.632812 281.347656 C 337.222656 282.695312 339.195312 281.527344 338.605469 280.195312 C 334.160156 270.121094 328.90625 260.425781 322.382812 251.539062 C 321.523438 250.363281 319.539062 251.5 320.410156 252.691406 "/>
<path style=" stroke:none;fill-rule:nonzero;fill:rgb(73.329163%,72.938538%,90.979004%);fill-opacity:1;" d="M 371.5 245.761719 C 371.199219 256.6875 369.421875 267.460938 366.78125 278.050781 C 366.425781 279.480469 368.632812 280.089844 368.984375 278.660156 C 371.675781 267.878906 373.480469 256.882812 373.785156 245.761719 C 373.824219 244.289062 371.539062 244.289062 371.5 245.761719 "/>
<path style=" stroke:none;fill-rule:nonzero;fill:rgb(73.329163%,72.938538%,90.979004%);fill-opacity:1;" d="M 427.148438 268.425781 C 420.25 277.019531 412.246094 284.605469 403.667969 291.5 C 402.519531 292.421875 404.148438 294.03125 405.28125 293.117188 C 413.863281 286.222656 421.867188 278.640625 428.765625 270.046875 C 429.679688 268.90625 428.070312 267.277344 427.148438 268.425781 "/>
<path style=" stroke:none;fill-rule:nonzero;fill:rgb(73.329163%,72.938538%,90.979004%);fill-opacity:1;" d="M 451.792969 329.277344 C 440.878906 329.472656 430.046875 328.199219 419.359375 326.039062 C 417.921875 325.753906 417.304688 327.957031 418.753906 328.246094 C 429.632812 330.445312 440.683594 331.765625 451.792969 331.5625 C 453.265625 331.535156 453.269531 329.246094 451.792969 329.277344 "/>
<path style=" stroke:none;fill-rule:nonzero;fill:rgb(21.958923%,21.958923%,37.649536%);fill-opacity:1;" d="M 353.4375 319.550781 C 353.183594 319.550781 352.941406 319.429688 352.792969 319.199219 C 350.480469 315.597656 347.894531 313.742188 345.117188 313.679688 C 340.144531 313.578125 336.0625 319.171875 336.023438 319.226562 C 335.777344 319.574219 335.304688 319.65625 334.960938 319.410156 C 334.617188 319.167969 334.535156 318.691406 334.777344 318.347656 C 334.820312 318.285156 339.207031 312.15625 344.976562 312.15625 C 345.035156 312.15625 345.089844 312.15625 345.148438 312.15625 C 348.46875 312.226562 351.46875 314.320312 354.078125 318.375 C 354.304688 318.730469 354.199219 319.203125 353.847656 319.429688 C 353.722656 319.511719 353.578125 319.550781 353.4375 319.550781 "/>
<path style=" stroke:none;fill-rule:nonzero;fill:rgb(21.958923%,21.958923%,37.649536%);fill-opacity:1;" d="M 391.667969 319.550781 C 391.414062 319.550781 391.167969 319.429688 391.023438 319.199219 C 388.710938 315.597656 386.125 313.742188 383.347656 313.679688 C 378.367188 313.578125 374.292969 319.171875 374.25 319.226562 C 374.007812 319.574219 373.535156 319.65625 373.1875 319.410156 C 372.847656 319.167969 372.765625 318.691406 373.007812 318.347656 C 373.050781 318.285156 377.4375 312.15625 383.207031 312.15625 C 383.265625 312.15625 383.324219 312.15625 383.378906 312.15625 C 386.695312 312.226562 389.699219 314.320312 392.308594 318.375 C 392.535156 318.730469 392.429688 319.203125 392.078125 319.429688 C 391.949219 319.511719 391.808594 319.550781 391.667969 319.550781 "/>
<path style=" stroke:none;fill-rule:nonzero;fill:rgb(97.24884%,74.119568%,54.899597%);fill-opacity:1;" d="M 462.585938 562.148438 C 462.585938 562.148438 444.597656 552.507812 440.101562 563.042969 C 435.601562 573.574219 439.0625 593.664062 462.585938 600.9375 C 486.113281 608.210938 472.273438 592.625 472.273438 592.625 L 462.585938 562.148438 "/>
<path style=" stroke:none;fill-rule:nonzero;fill:rgb(97.24884%,74.119568%,54.899597%);fill-opacity:1;" d="M 533.632812 562.148438 C 533.632812 562.148438 551.621094 552.507812 556.121094 563.042969 C 560.621094 573.574219 557.160156 593.664062 533.632812 600.9375 C 510.105469 608.210938 523.945312 592.625 523.945312 592.625 L 533.632812 562.148438 "/>
<path style=" stroke:none;fill-rule:nonzero;fill:rgb(97.24884%,74.119568%,54.899597%);fill-opacity:1;" d="M 482.796875 464.304688 L 481.625 487.90625 L 512.179688 487.90625 L 509.628906 462.75 L 482.796875 464.304688 "/>
<path style=" stroke:none;fill-rule:nonzero;fill:rgb(97.24884%,74.119568%,54.899597%);fill-opacity:1;" d="M 467.761719 446.195312 C 467.761719 451.550781 463.425781 455.894531 458.074219 455.894531 C 452.726562 455.894531 448.386719 451.550781 448.386719 446.195312 C 448.386719 440.84375 452.726562 436.5 458.074219 436.5 C 463.425781 436.5 467.761719 440.84375 467.761719 446.195312 "/>
<path style=" stroke:none;fill-rule:nonzero;fill:rgb(97.24884%,74.119568%,54.899597%);fill-opacity:1;" d="M 540.164062 446.121094 C 540.164062 451.519531 535.792969 455.890625 530.398438 455.890625 C 525.011719 455.890625 520.636719 451.519531 520.636719 446.121094 C 520.636719 440.722656 525.011719 436.347656 530.398438 436.347656 C 535.792969 436.347656 540.164062 440.722656 540.164062 446.121094 "/>
<path style=" stroke:none;fill-rule:nonzero;fill:rgb(49.01886%,49.01886%,71.759033%);fill-opacity:1;" d="M 476.316406 487.765625 C 476.316406 487.765625 448.640625 533.613281 447.082031 545.417969 C 445.527344 557.226562 453.890625 572.847656 458.527344 583 C 463.167969 593.148438 468.015625 585.15625 468.53125 583 C 469.050781 580.839844 476.316406 487.765625 476.316406 487.765625 "/>
<path style=" stroke:none;fill-rule:nonzero;fill:rgb(49.01886%,49.01886%,71.759033%);fill-opacity:1;" d="M 517.480469 487.765625 C 517.480469 487.765625 548.773438 534.160156 551.273438 546.535156 C 553.773438 558.90625 546.695312 576.066406 542.882812 587.15625 C 539.074219 598.25 533.601562 590.164062 532.914062 587.917969 C 532.21875 585.675781 517.480469 487.765625 517.480469 487.765625 "/>
<path style=" stroke:none;fill-rule:nonzero;fill:rgb(48.239136%,48.239136%,68.629456%);fill-opacity:1;" d="M 455.214844 565.652344 C 455.214844 565.652344 445.507812 578.601562 445.351562 585.742188 C 444.960938 604.273438 470.882812 608.683594 482.28125 610.996094 C 496.144531 613.808594 510.59375 613.800781 524.429688 610.820312 C 535.480469 608.441406 545.679688 602.058594 550.035156 590.109375 C 556.003906 573.746094 540.164062 562.054688 540.164062 562.054688 L 455.214844 565.652344 "/>
<path style=" stroke:none;fill-rule:nonzero;fill:rgb(59.21936%,58.039856%,82.749939%);fill-opacity:1;" d="M 517.484375 487.765625 C 517.484375 487.765625 536.167969 546.746094 539.96875 560.738281 C 543.78125 574.726562 489.808594 606.484375 455.210938 565.652344 L 476.3125 487.765625 L 517.484375 487.765625 "/>
<path style=" stroke:none;fill-rule:nonzero;fill:rgb(59.21936%,58.039856%,82.749939%);fill-opacity:1;" d="M 515.824219 491.15625 L 477.089844 491.15625 C 475.597656 491.15625 474.386719 489.945312 474.386719 488.453125 L 474.386719 482.8125 C 474.386719 481.320312 475.597656 480.109375 477.089844 480.109375 L 515.824219 480.109375 C 517.316406 480.109375 518.527344 481.320312 518.527344 482.8125 L 518.527344 488.453125 C 518.527344 489.945312 517.316406 491.15625 515.824219 491.15625 "/>
<path style=" stroke:none;fill-rule:nonzero;fill:rgb(23.919678%,23.529053%,23.139954%);fill-opacity:1;" d="M 496.210938 484.660156 C 504.675781 481.539062 510.265625 475.179688 516.535156 469.386719 C 523.164062 463.261719 530.46875 458.019531 534.621094 449.972656 C 538.351562 442.75 539.058594 434.484375 538.816406 426.472656 C 538.539062 417.265625 537.011719 407.867188 532.269531 399.792969 C 529.101562 394.398438 525.082031 389.503906 520.058594 385.503906 C 515.613281 381.960938 510.640625 379.054688 505.648438 376.242188 C 500.84375 373.53125 496.542969 370.066406 491.117188 368.378906 C 491.441406 368.480469 490.109375 373.246094 490 373.765625 C 489.5 376.097656 489.199219 378.628906 487.507812 380.523438 C 485.410156 382.882812 481.867188 383.46875 478.691406 384.238281 C 464.308594 387.71875 453.402344 398.261719 450.660156 411.960938 C 448.585938 422.320312 449.488281 433.988281 452.554688 444.105469 C 456.945312 458.589844 468.390625 467.574219 482.859375 473.308594 C 487.878906 475.300781 495.089844 477.476562 493.148438 484.167969 C 493.046875 484.507812 492.921875 484.894531 493.296875 485.183594 C 493.554688 485.382812 493.921875 485.421875 494.242188 485.324219 C 494.90625 485.121094 495.566406 484.898438 496.210938 484.660156 "/>
<path style=" stroke:none;fill-rule:nonzero;fill:rgb(97.24884%,74.119568%,54.899597%);fill-opacity:1;" d="M 339.144531 563.96875 C 339.144531 563.96875 318.546875 552.792969 314.691406 561.824219 C 310.835938 570.851562 313.804688 588.066406 333.96875 594.300781 C 354.132812 600.535156 342.269531 587.179688 342.269531 587.179688 L 339.144531 563.96875 "/>
<path style=" stroke:none;fill-rule:nonzero;fill:rgb(97.24884%,74.119568%,54.899597%);fill-opacity:1;" d="M 406.402344 569.007812 C 406.402344 569.007812 427 557.828125 430.855469 566.859375 C 434.710938 575.890625 431.746094 593.109375 411.582031 599.34375 C 391.417969 605.578125 403.277344 592.214844 403.277344 592.214844 L 406.402344 569.007812 "/>
<path style=" stroke:none;fill-rule:nonzero;fill:rgb(97.24884%,74.119568%,54.899597%);fill-opacity:1;" d="M 385.492188 503.917969 C 385.492188 503.917969 407.089844 522.804688 409.871094 542.804688 C 412.652344 562.808594 406.003906 571.59375 406.003906 571.59375 L 385.492188 503.917969 "/>
<path style=" stroke:none;fill-rule:nonzero;fill:rgb(97.24884%,74.119568%,54.899597%);fill-opacity:1;" d="M 358.265625 502.648438 C 358.265625 502.648438 336.664062 521.535156 333.886719 541.535156 C 331.105469 561.539062 337.757812 570.320312 337.757812 570.320312 L 358.265625 502.648438 "/>
<path style=" stroke:none;fill-rule:nonzero;fill:rgb(97.24884%,74.119568%,54.899597%);fill-opacity:1;" d="M 345.738281 477.152344 C 345.738281 482.121094 341.710938 486.148438 336.75 486.148438 C 331.785156 486.148438 327.765625 482.121094 327.765625 477.152344 C 327.765625 472.183594 331.785156 468.15625 336.75 468.15625 C 341.710938 468.15625 345.738281 472.183594 345.738281 477.152344 "/>
<path style=" stroke:none;fill-rule:nonzero;fill:rgb(97.24884%,74.119568%,54.899597%);fill-opacity:1;" d="M 414.296875 477.152344 C 414.296875 482.121094 410.277344 486.148438 405.3125 486.148438 C 400.351562 486.148438 396.328125 482.121094 396.328125 477.152344 C 396.328125 472.183594 400.351562 468.15625 405.3125 468.15625 C 410.277344 468.15625 414.296875 472.183594 414.296875 477.152344 "/>
<path style=" stroke:none;fill-rule:nonzero;fill:rgb(99.609375%,43.139648%,55.288696%);fill-opacity:1;" d="M 387.875 505.761719 L 387.902344 505.761719 C 389.105469 505.753906 401.402344 547.632812 403.125 551.820312 C 406.226562 559.359375 409.722656 566.726562 413.804688 573.707031 C 416.050781 577.546875 425.667969 587.511719 422.742188 592.484375 C 421.5 594.597656 419.375 595.878906 417.292969 596.964844 C 407.613281 602.003906 396.984375 604.625 386.292969 605.296875 C 375.203125 605.996094 364.699219 604.15625 353.851562 602.023438 C 344.527344 600.195312 334.914062 596.449219 326.597656 591.554688 C 324.273438 590.1875 314.730469 584.585938 317.132812 581.179688 C 318.746094 578.894531 320.578125 576.769531 322.269531 574.550781 C 329.082031 565.632812 335.632812 556.417969 341.003906 546.394531 C 344.269531 540.292969 347.082031 533.898438 349.191406 527.226562 C 349.738281 525.496094 355.375 503.921875 354.570312 503.921875 C 366.128906 503.886719 376.320312 505.796875 387.875 505.761719 "/>
<path style=" stroke:none;fill-rule:nonzero;fill:rgb(23.919678%,23.529053%,23.139954%);fill-opacity:1;" d="M 358.667969 418.945312 C 346.996094 423.09375 336.867188 431.984375 332.972656 443.117188 C 327.878906 457.675781 328.121094 471.824219 335.335938 485.570312 C 340.632812 495.664062 349.890625 503.210938 359.871094 508.378906 C 379.292969 518.441406 396.421875 504.101562 405.445312 487.230469 C 410.441406 477.894531 411.585938 468.75 412.039062 458.464844 C 412.851562 439.933594 400.011719 421.304688 380.5625 417.175781 C 373.390625 415.65625 365.746094 416.429688 358.667969 418.945312 "/>
<path style=" stroke:none;fill-rule:nonzero;fill:rgb(23.919678%,23.529053%,23.139954%);fill-opacity:1;" d="M 382.109375 510.785156 C 382.109375 516.441406 377.53125 521.027344 371.878906 521.027344 C 366.230469 521.027344 361.648438 516.441406 361.648438 510.785156 C 361.648438 505.128906 366.230469 500.546875 371.878906 500.546875 C 377.53125 500.546875 382.109375 505.128906 382.109375 510.785156 "/>
<path style=" stroke:none;fill-rule:nonzero;fill:rgb(23.919678%,23.529053%,23.139954%);fill-opacity:1;" d="M 381.394531 524.589844 C 381.394531 529.851562 377.132812 534.117188 371.878906 534.117188 C 366.625 534.117188 362.363281 529.851562 362.363281 524.589844 C 362.363281 519.328125 366.625 515.0625 371.878906 515.0625 C 377.132812 515.0625 381.394531 519.328125 381.394531 524.589844 "/>
<path style=" stroke:none;fill-rule:nonzero;fill:rgb(23.919678%,23.529053%,23.139954%);fill-opacity:1;" d="M 380.570312 536.484375 C 380.570312 541.289062 376.679688 545.183594 371.878906 545.183594 C 367.082031 545.183594 363.1875 541.289062 363.1875 536.484375 C 363.1875 531.679688 367.082031 527.785156 371.878906 527.785156 C 376.679688 527.785156 380.570312 531.679688 380.570312 536.484375 "/>
<path style=" stroke:none;fill-rule:nonzero;fill:rgb(23.919678%,23.529053%,23.139954%);fill-opacity:1;" d="M 375.273438 541.25 C 375.722656 541.332031 376.132812 541.519531 376.429688 541.914062 C 377.3125 543.070312 377.53125 545.304688 377.730469 546.714844 C 378.078125 549.199219 377.941406 551.765625 377.21875 554.175781 C 376.371094 557.003906 374.691406 559.601562 372.40625 561.457031 C 371.875 561.886719 371.097656 561.511719 371.082031 560.828125 C 371.046875 559.445312 370.214844 558.316406 369.003906 557.253906 C 368.175781 556.523438 367.480469 555.679688 366.960938 554.738281 C 366.445312 553.808594 366.097656 552.785156 365.960938 551.691406 C 365.667969 549.40625 365.941406 546.6875 366.773438 544.53125 C 367.085938 543.71875 367.90625 541.863281 368.992188 541.757812 C 370.277344 541.632812 371.566406 541.507812 372.851562 541.382812 C 373.574219 541.3125 374.492188 541.113281 375.273438 541.25 "/>
<path style=" stroke:none;fill-rule:nonzero;fill:rgb(86.669922%,35.688782%,54.119873%);fill-opacity:1;" d="M 372.480469 545.847656 C 369.242188 545.847656 366.644531 543.679688 366.605469 543.648438 C 366.445312 543.507812 366.425781 543.269531 366.5625 543.109375 C 366.699219 542.949219 366.9375 542.929688 367.097656 543.066406 C 367.316406 543.25 372.492188 547.550781 377.101562 543.082031 C 377.25 542.933594 377.492188 542.941406 377.640625 543.089844 C 377.785156 543.242188 377.78125 543.484375 377.628906 543.632812 C 375.914062 545.292969 374.113281 545.847656 372.480469 545.847656 "/>
<path style=" stroke:none;fill-rule:nonzero;fill:rgb(32.939148%,36.859131%,66.268921%);fill-opacity:1;" d="M 291.171875 561.359375 L 291 561.171875 C 291.296875 560.898438 291.597656 560.617188 291.894531 560.328125 L 292.070312 560.511719 C 291.773438 560.800781 291.46875 561.082031 291.171875 561.359375 "/>
<path style=" stroke:none;fill-rule:nonzero;fill:rgb(97.24884%,74.119568%,54.899597%);fill-opacity:1;" d="M 216.710938 560.417969 C 216.710938 560.417969 202.78125 552.953125 199.300781 561.109375 C 195.816406 569.269531 198.496094 584.820312 216.710938 590.453125 C 234.925781 596.085938 224.210938 584.015625 224.210938 584.015625 L 216.710938 560.417969 "/>
<path style=" stroke:none;fill-rule:nonzero;fill:rgb(97.24884%,74.119568%,54.899597%);fill-opacity:1;" d="M 289.300781 560.417969 C 289.300781 560.417969 303.234375 552.953125 306.714844 561.109375 C 310.195312 569.269531 307.519531 584.820312 289.300781 590.453125 C 271.085938 596.085938 281.804688 584.015625 281.804688 584.015625 L 289.300781 560.417969 "/>
<path style=" stroke:none;fill-rule:nonzero;fill:rgb(97.24884%,74.119568%,54.899597%);fill-opacity:1;" d="M 234.960938 514.507812 C 234.960938 514.507812 214.300781 533.167969 214.300781 550.546875 C 214.300781 567.925781 222.871094 574.625 222.871094 574.625 L 234.960938 514.507812 "/>
<path style=" stroke:none;fill-rule:nonzero;fill:rgb(97.24884%,74.119568%,54.899597%);fill-opacity:1;" d="M 263.308594 510.382812 C 263.308594 510.382812 288.421875 526.824219 290.957031 545.042969 C 293.488281 563.265625 285.171875 571.578125 285.171875 571.578125 L 263.308594 510.382812 "/>
<path style=" stroke:none;fill-rule:nonzero;fill:rgb(32.939148%,36.859131%,66.268921%);fill-opacity:1;" d="M 291.085938 561.269531 C 262.398438 588.046875 229.882812 573.867188 213.628906 563.855469 C 214.273438 560.632812 215.5 557.523438 217.515625 554.785156 C 225.816406 543.523438 230.90625 519.089844 235.730469 513.457031 C 240.550781 507.824219 245.90625 508.394531 259.835938 508.394531 C 260.078125 508.394531 260.453125 508.65625 260.65625 508.757812 C 261.425781 509.136719 262.15625 509.585938 262.863281 510.070312 C 265.511719 511.886719 267.773438 514.246094 269.6875 516.816406 C 274.578125 523.363281 277.496094 531.058594 280.707031 538.5 C 284.027344 546.191406 288.582031 553.238281 291.085938 561.269531 "/>
<path style=" stroke:none;fill-rule:nonzero;fill:rgb(23.919678%,23.919678%,41.958618%);fill-opacity:1;" d="M 252.875 600.371094 C 231.175781 599.304688 222.335938 593.402344 218.320312 588.574219 C 215.277344 584.917969 211.621094 573.886719 213.628906 563.855469 C 229.882812 573.867188 262.398438 588.046875 291.085938 561.269531 C 292.300781 565.15625 293.144531 569.304688 293.320312 573.558594 C 294.125 593.132812 274.570312 601.449219 252.875 600.371094 "/>
<path style=" stroke:none;fill-rule:nonzero;fill:rgb(32.939148%,36.859131%,66.268921%);fill-opacity:1;" d="M 237.414062 511.703125 C 237.414062 511.703125 228.199219 517.472656 223.242188 523.347656 C 218.28125 529.21875 224.394531 529.824219 227.457031 533.519531 C 230.515625 537.21875 239.585938 512.65625 239.585938 512.65625 L 237.414062 511.703125 "/>
<path style=" stroke:none;fill-rule:nonzero;fill:rgb(32.939148%,36.859131%,66.268921%);fill-opacity:1;" d="M 263.355469 510.382812 C 263.355469 510.382812 273.625 514.523438 279.628906 519.515625 C 285.632812 524.511719 279.585938 526.183594 277.140625 530.414062 C 274.703125 534.648438 261.332031 511.714844 261.332031 511.714844 L 263.355469 510.382812 "/>
<path style=" stroke:none;fill-rule:nonzero;fill:rgb(97.24884%,74.119568%,54.899597%);fill-opacity:1;" d="M 240.40625 496.195312 L 239.492188 508.378906 L 263.308594 508.378906 L 261.324219 495.386719 L 240.40625 496.195312 "/>
<path style=" stroke:none;fill-rule:nonzero;fill:rgb(32.939148%,36.859131%,66.268921%);fill-opacity:1;" d="M 262.746094 511.882812 L 239.847656 511.882812 C 238.628906 511.882812 237.636719 510.890625 237.636719 509.667969 L 237.636719 507.089844 C 237.636719 505.871094 238.628906 504.878906 239.847656 504.878906 L 262.746094 504.878906 C 263.96875 504.878906 264.957031 505.871094 264.957031 507.089844 L 264.957031 509.667969 C 264.957031 510.890625 263.96875 511.882812 262.746094 511.882812 "/>
<path style=" stroke:none;fill-rule:nonzero;fill:rgb(97.24884%,74.119568%,54.899597%);fill-opacity:1;" d="M 226.890625 473.265625 C 226.890625 477.5625 223.410156 481.042969 219.121094 481.042969 C 214.832031 481.042969 211.351562 477.5625 211.351562 473.265625 C 211.351562 468.972656 214.832031 465.488281 219.121094 465.488281 C 223.410156 465.488281 226.890625 468.972656 226.890625 473.265625 "/>
<path style=" stroke:none;fill-rule:nonzero;fill:rgb(97.24884%,74.119568%,54.899597%);fill-opacity:1;" d="M 292.910156 473.265625 C 292.910156 477.5625 289.429688 481.042969 285.140625 481.042969 C 280.851562 481.042969 277.375 477.5625 277.375 473.265625 C 277.375 468.972656 280.851562 465.488281 285.140625 465.488281 C 289.429688 465.488281 292.910156 468.972656 292.910156 473.265625 "/>
<path style=" stroke:none;fill-rule:nonzero;fill:rgb(23.919678%,23.529053%,23.139954%);fill-opacity:1;" d="M 284.921875 435.320312 C 284.753906 434.824219 284.828125 434.296875 285.105469 433.863281 C 288.285156 428.921875 288.898438 421.34375 287.894531 415.59375 C 287.667969 414.320312 287.054688 413.070312 286.210938 412.054688 C 285.414062 411.097656 283.976562 411.460938 283.613281 412.671875 C 282.941406 414.898438 281.128906 416.414062 278.933594 417.28125 C 277.972656 417.660156 276.976562 416.992188 276.851562 415.925781 C 276.503906 413 273.484375 411.257812 271.527344 410.425781 C 270.804688 410.117188 269.957031 410.4375 269.628906 411.175781 C 266.753906 417.59375 238.792969 416.316406 235.707031 416.15625 C 235.519531 416.144531 235.335938 416.167969 235.160156 416.226562 C 228.371094 418.417969 223.152344 423.089844 219.417969 429.800781 C 219.398438 429.835938 219.378906 429.875 219.355469 429.910156 C 218.675781 431.128906 216.925781 430.863281 216.574219 429.503906 C 216.453125 429.027344 216.394531 428.574219 216.378906 428.144531 C 216.316406 426.488281 214.253906 425.933594 213.511719 427.398438 C 212.675781 429.046875 212.347656 430.921875 212.394531 432.757812 C 212.414062 433.550781 212.480469 434.269531 212.742188 435.023438 C 213.023438 435.832031 213.453125 436.625 213.398438 437.507812 C 213.347656 438.375 212.847656 439.097656 212.503906 439.867188 C 212.136719 440.6875 212.058594 441.527344 211.96875 442.417969 C 211.765625 444.386719 211.996094 446.367188 212.085938 448.335938 C 212.355469 454.441406 212.523438 459.363281 213.921875 465.488281 C 215.675781 473.183594 218.609375 480.957031 223.035156 487.390625 C 225.179688 490.507812 227.949219 493.242188 231.109375 495.320312 C 238.199219 499.992188 247.316406 500.871094 255.480469 499.878906 C 261.546875 499.140625 267.617188 497.320312 272.699219 493.855469 C 274.398438 492.695312 275.976562 491.359375 277.375 489.847656 C 283.605469 483.101562 288.515625 473.359375 289.003906 464.429688 C 289.519531 455.09375 287.945312 444.3125 284.921875 435.320312 "/>
</g>
</svg>
