<?xml version="1.0" encoding="UTF-8"?>
<svg xmlns="http://www.w3.org/2000/svg" xmlns:xlink="http://www.w3.org/1999/xlink" width="810pt" height="809.999993pt" viewBox="0 0 810 809.999993" version="1.2">
<g id="surface1">
<path style=" stroke:none;fill-rule:nonzero;fill:rgb(11.369324%,5.488586%,2.749634%);fill-opacity:1;" d="M 413.914062 111.042969 C 429.691406 122.253906 439.5625 137.996094 447.394531 155.367188 C 454.457031 171.03125 458.703125 188.511719 468.292969 202.894531 C 476.222656 214.785156 488.527344 222.765625 498.925781 232.246094 C 506.546875 239.195312 524.96875 259.234375 512.519531 268.769531 C 511.1875 269.789062 511.890625 272.464844 513.78125 271.75 C 543.800781 260.417969 492.710938 220.0625 483.792969 212.101562 C 467.085938 197.1875 461.378906 175.644531 452.601562 155.800781 C 444.230469 136.871094 432.996094 120.050781 415.046875 109.105469 C 413.792969 108.339844 412.757812 110.21875 413.914062 111.042969 Z M 413.914062 111.042969 "/>
<path style=" stroke:none;fill-rule:nonzero;fill:rgb(11.369324%,5.488586%,2.749634%);fill-opacity:1;" d="M 306.589844 113.035156 C 289.398438 125.863281 270.097656 135.710938 271.746094 160.222656 C 272.449219 170.691406 282.871094 199.984375 297.519531 185.566406 C 298.109375 184.988281 297.644531 184.074219 296.882812 184.027344 C 281.128906 183.097656 277.074219 168.523438 276.964844 154.59375 C 276.816406 135.363281 296.769531 127.066406 308.273438 115.21875 C 309.335938 114.121094 307.890625 112.0625 306.589844 113.035156 Z M 306.589844 113.035156 "/>
<path style=" stroke:none;fill-rule:nonzero;fill:rgb(11.369324%,5.488586%,2.749634%);fill-opacity:1;" d="M 427.832031 112.242188 C 455.585938 141.351562 454.71875 182.542969 465.816406 204.722656 C 481.082031 233.832031 518.546875 242.148438 526.871094 275.417969 C 535.195312 311.457031 525.484375 341.953125 486.632812 348.882812 C 453.328125 354.429688 428.355469 344.722656 410.3125 315.617188 C 386.726562 272.644531 375.625 203.335938 385.339844 154.820312 "/>
<path style=" stroke:none;fill-rule:nonzero;fill:rgb(62.748718%,62.748718%,76.078796%);fill-opacity:1;" d="M 371.113281 426.792969 C 348.21875 428.871094 332.609375 472.945312 309.714844 479.183594 C 274.332031 489.578125 193.15625 499.976562 193.15625 545.71875 C 195.238281 624.730469 370.074219 591.464844 413.78125 610.175781 C 501.199219 643.445312 571.964844 720.375 669.789062 666.316406 C 717.660156 639.285156 709.335938 587.304688 680.195312 547.796875 C 655.21875 512.453125 605.265625 487.5 567.800781 466.707031 "/>
<path style=" stroke:none;fill-rule:nonzero;fill:rgb(81.17981%,32.939148%,26.269531%);fill-opacity:1;" d="M 325.378906 521.71875 C 364.546875 515.136719 400.328125 526.152344 427.4375 555.496094 C 449.605469 579.492188 461.136719 612.023438 488.214844 631.710938 C 490.371094 633.28125 492.429688 629.699219 490.296875 628.148438 C 459.386719 605.671875 447.101562 566.09375 418.574219 541.066406 C 392.316406 518.035156 357.960938 512.078125 324.28125 517.742188 C 321.65625 518.179688 322.773438 522.15625 325.378906 521.71875 Z M 325.378906 521.71875 "/>
<path style=" stroke:none;fill-rule:nonzero;fill:rgb(81.17981%,32.939148%,26.269531%);fill-opacity:1;" d="M 430.8125 559.832031 C 458.058594 568.46875 485.886719 568.042969 514.019531 569.835938 C 526.332031 570.621094 538.558594 572.585938 550.378906 576.136719 C 563.515625 580.078125 571.914062 586.6875 580.875 596.621094 C 581.792969 597.636719 583.753906 596.578125 583.242188 595.246094 C 575.6875 575.667969 545.050781 569.867188 527.101562 567.648438 C 513.445312 565.964844 499.898438 566.101562 486.175781 565.714844 C 467.5 565.1875 449.554688 561.140625 431.140625 558.640625 C 430.375 558.535156 430.03125 559.582031 430.8125 559.832031 Z M 430.8125 559.832031 "/>
<path style=" stroke:none;fill-rule:nonzero;fill:rgb(97.648621%,93.728638%,89.019775%);fill-opacity:1;" d="M 301.523438 588.871094 C 314.925781 594.410156 490.828125 653.660156 472.339844 673.515625 C 462.632812 683.214844 355.398438 718.769531 325.816406 723.847656 C 296.230469 728.925781 133.992188 675.386719 123.824219 652.738281 C 113.652344 630.089844 92.855469 527.601562 94.242188 514.210938 C 95.628906 499.433594 112.730469 502.207031 123.363281 504.050781 C 143.699219 507.285156 164.5 511.902344 184.835938 516.519531 C 209.335938 521.597656 233.371094 528.527344 258.332031 534.066406 C 269.886719 536.835938 288.839844 538.222656 297.160156 547.457031 C 303.167969 553 305.941406 559.925781 307.328125 568.238281 C 308.253906 574.238281 329.039062 704.621094 328.574219 710.621094 "/>
<path style=" stroke:none;fill-rule:nonzero;fill:rgb(81.17981%,32.939148%,26.269531%);fill-opacity:1;" d="M 355.476562 622.769531 C 348.09375 619.902344 340.6875 617.121094 333.246094 614.40625 C 328.640625 612.726562 324.019531 611.089844 319.386719 609.472656 C 317.738281 608.898438 315.355469 607.71875 313.542969 608.164062 C 313.207031 608.246094 312.964844 608.71875 313.191406 609.023438 C 316.253906 613.082031 326.546875 614.683594 331.035156 616.257812 C 339.007812 619.058594 346.988281 621.796875 355.019531 624.429688 C 356.09375 624.78125 356.492188 623.160156 355.476562 622.769531 Z M 355.476562 622.769531 "/>
<path style=" stroke:none;fill-rule:nonzero;fill:rgb(81.17981%,32.939148%,26.269531%);fill-opacity:1;" d="M 398.777344 685.964844 C 385.839844 690.042969 372.769531 693.753906 359.605469 697.039062 C 351.234375 699.128906 342.648438 701.246094 334.011719 701.796875 C 327.863281 702.191406 328.226562 698.148438 327.152344 692.957031 C 321.050781 663.460938 318.214844 633.074219 314.867188 603.160156 C 314.574219 600.527344 310.40625 600.5 310.703125 603.160156 C 314.273438 635.050781 316.347656 668.503906 324.410156 699.625 C 327.398438 711.164062 344.617188 704.699219 352.71875 702.929688 C 368.628906 699.457031 384.359375 694.871094 399.886719 689.972656 C 402.433594 689.171875 401.34375 685.152344 398.777344 685.964844 Z M 398.777344 685.964844 "/>
<path style=" stroke:none;fill-rule:nonzero;fill:rgb(87.059021%,57.649231%,48.239136%);fill-opacity:1;" d="M 430.417969 180.042969 C 439.410156 165.972656 445.601562 178.320312 446.230469 186.644531 C 447.957031 201.8125 438.230469 206.875 425.539062 211.003906 "/>
<path style=" stroke:none;fill-rule:nonzero;fill:rgb(87.059021%,57.649231%,48.239136%);fill-opacity:1;" d="M 430.191406 147.910156 C 439.878906 177.3125 427.234375 223.585938 404.785156 243.847656 C 374.46875 271.207031 332.519531 269.316406 312.914062 236.746094 C 302.835938 220 292.070312 176.933594 294.863281 157.089844 C 296.222656 147.433594 298.59375 110.007812 355.984375 100.847656 C 413.371094 91.691406 424.246094 129.859375 430.191406 147.910156 Z M 430.191406 147.910156 "/>
<path style=" stroke:none;fill-rule:nonzero;fill:rgb(11.369324%,5.488586%,2.749634%);fill-opacity:1;" d="M 303.511719 191.023438 C 305 195.535156 309.804688 197.6875 314.148438 198.640625 C 317.664062 199.410156 324.636719 199.808594 326.578125 196.113281 C 326.851562 195.59375 326.753906 194.8125 326.164062 194.535156 C 323.363281 193.210938 320.105469 194.78125 317.070312 194.738281 C 312.246094 194.664062 309.371094 191.660156 305.421875 189.554688 C 304.46875 189.046875 303.136719 189.886719 303.511719 191.023438 Z M 303.511719 191.023438 "/>
<path style=" stroke:none;fill-rule:nonzero;fill:rgb(11.369324%,5.488586%,2.749634%);fill-opacity:1;" d="M 350.742188 195.480469 C 354.863281 200.335938 361.847656 199.992188 367.585938 198.933594 C 373.078125 197.921875 382.472656 195 385.632812 190.152344 C 385.988281 189.605469 385.507812 188.96875 384.929688 188.933594 C 380.566406 188.648438 376.152344 191.890625 372.214844 193.4375 C 365.058594 196.246094 359.359375 196.53125 352.257812 193.515625 C 350.960938 192.960938 349.78125 194.347656 350.742188 195.480469 Z M 350.742188 195.480469 "/>
<path style=" stroke:none;fill-rule:nonzero;fill:rgb(87.059021%,57.649231%,48.239136%);fill-opacity:1;" d="M 326.273438 187.90625 C 333.300781 206.109375 304.765625 229.492188 338.066406 220.679688 "/>
<path style=" stroke:none;fill-rule:nonzero;fill:rgb(81.17981%,32.939148%,26.269531%);fill-opacity:1;" d="M 325.066406 188.238281 C 328.152344 198.917969 320.746094 207.847656 319.570312 218.050781 C 318.421875 228.011719 334.285156 224.308594 338.867188 222.042969 C 340.277344 221.34375 339.597656 219.046875 338.070312 219.105469 C 333.875 219.261719 328.011719 222.070312 324.054688 220.011719 C 322.035156 218.957031 325.1875 211.9375 325.664062 210.566406 C 328.277344 203.042969 330.574219 195.320312 327.480469 187.574219 C 326.898438 186.113281 324.609375 186.652344 325.066406 188.238281 Z M 325.066406 188.238281 "/>
<path style=" stroke:none;fill-rule:nonzero;fill:rgb(11.369324%,5.488586%,2.749634%);fill-opacity:1;" d="M 305.910156 176.367188 C 310.226562 174.792969 313.273438 174.3125 317.804688 175.835938 C 319.824219 176.519531 324.21875 180.355469 325.523438 176.820312 C 325.789062 176.089844 325.441406 175.332031 324.984375 174.785156 C 321.144531 170.183594 307.386719 167.332031 304 173.886719 C 303.378906 175.089844 304.417969 176.910156 305.910156 176.367188 Z M 305.910156 176.367188 "/>
<path style=" stroke:none;fill-rule:nonzero;fill:rgb(11.369324%,5.488586%,2.749634%);fill-opacity:1;" d="M 352.277344 176.492188 C 361.714844 172.265625 369.332031 170.207031 379.230469 174.636719 C 381.90625 175.832031 384.03125 172.359375 381.546875 170.679688 C 372.355469 164.46875 358.113281 166.335938 349.8125 173.300781 C 347.90625 174.902344 350.335938 177.363281 352.277344 176.492188 Z M 352.277344 176.492188 "/>
<path style=" stroke:none;fill-rule:nonzero;fill:rgb(11.369324%,5.488586%,2.749634%);fill-opacity:1;" d="M 328.53125 232.453125 C 342.269531 238.558594 358.023438 233.308594 369.699219 224.648438 C 370.265625 224.230469 370.1875 223.035156 369.289062 223.132812 C 363.90625 223.738281 359.339844 226.523438 354.523438 228.886719 C 345.808594 233.171875 338.605469 233.253906 329.320312 230.582031 C 328.230469 230.269531 327.453125 231.976562 328.53125 232.453125 Z M 328.53125 232.453125 "/>
<path style=" stroke:none;fill-rule:nonzero;fill:rgb(87.059021%,57.649231%,48.239136%);fill-opacity:1;" d="M 418.640625 222.742188 C 426.964844 250.46875 431.128906 247.695312 454.71875 247.695312 C 476.917969 247.695312 486.632812 254.625 488.019531 278.191406 C 490.792969 308.6875 476.917969 347.5 468.59375 376.605469 C 465.820312 389.082031 463.042969 407.101562 449.167969 409.875 C 431.128906 412.648438 407.539062 389.082031 393.664062 379.378906 C 370.074219 364.132812 307.636719 326.703125 322.898438 290.664062 C 334 264.328125 382.566406 271.257812 358.976562 231.058594 "/>
<path style=" stroke:none;fill-rule:nonzero;fill:rgb(87.059021%,57.649231%,48.239136%);fill-opacity:1;" d="M 499.117188 522.15625 L 492.179688 505.523438 C 463.042969 529.085938 429.738281 536.019531 396.4375 551.265625 C 374.238281 560.96875 374.238281 581.761719 360.359375 599.78125 C 346.484375 615.03125 340.933594 630.277344 329.832031 648.296875 C 342.324219 645.523438 349.257812 631.664062 356.195312 623.347656 C 363.136719 631.664062 356.195312 645.523438 372.847656 649.683594 C 378.398438 652.453125 392.96875 646.21875 399.210938 642.753906 C 410.3125 648.296875 411.699219 644.136719 413.085938 634.433594 C 415.863281 620.574219 406.148438 624.730469 417.25 609.484375 C 421.414062 605.324219 426.964844 603.9375 429.738281 598.394531 C 431.125 594.238281 428.351562 587.304688 431.125 584.535156 C 436.675781 574.832031 447.777344 577.601562 457.492188 576.214844 C 471.367188 573.445312 504.667969 573.445312 514.378906 562.355469 C 525.480469 549.878906 512.996094 526.3125 499.117188 522.15625 Z M 499.117188 522.15625 "/>
<path style=" stroke:none;fill-rule:nonzero;fill:rgb(81.17981%,32.939148%,26.269531%);fill-opacity:0.4;" d="M 381.851562 218.972656 C 384.101562 227.527344 395.996094 229.023438 404.992188 222.140625 C 415.335938 214.230469 422.375 196.703125 415.152344 190.277344 C 401.644531 178.257812 378.082031 208.492188 381.851562 218.972656 Z M 381.851562 218.972656 "/>
<path style=" stroke:none;fill-rule:nonzero;fill:rgb(81.17981%,32.939148%,26.269531%);fill-opacity:0.4;" d="M 311.453125 234.039062 C 311.433594 234.039062 311.433594 234.039062 311.410156 234.0625 C 307.039062 225.765625 302.691406 213 299.464844 199.773438 C 305.207031 202.042969 310.953125 206.117188 314.617188 210.917969 C 321.503906 219.921875 320.007812 231.792969 311.453125 234.039062 Z M 311.453125 234.039062 "/>
<path style=" stroke:none;fill-rule:nonzero;fill:rgb(81.17981%,32.939148%,26.269531%);fill-opacity:1;" d="M 428.941406 200.171875 C 430.742188 196.429688 431.054688 192.296875 433.527344 188.769531 C 433.988281 188.109375 434.648438 187.476562 435.414062 187.203125 C 436.472656 186.828125 437.253906 187.664062 438.167969 188 C 440.117188 188.722656 441.195312 187.523438 439.902344 185.746094 C 437.207031 182.039062 432.53125 184.796875 430.59375 187.542969 C 429.28125 189.398438 428.5 191.675781 427.816406 193.820312 C 427.246094 195.605469 426.53125 197.636719 426.546875 199.523438 C 426.554688 200.734375 428.367188 201.367188 428.941406 200.171875 Z M 428.941406 200.171875 "/>
<path style=" stroke:none;fill-rule:nonzero;fill:rgb(11.369324%,5.488586%,2.749634%);fill-opacity:1;" d="M 309.480469 107.832031 C 292.378906 118.761719 265.773438 164.941406 303.945312 167.917969 C 300.375 160.757812 302.074219 151.71875 307.425781 145.800781 C 308.777344 164.160156 313.382812 164.378906 328.234375 170.3125 C 327.992188 162.585938 329.335938 156.921875 333.933594 151.03125 C 335.402344 158.625 333.84375 170.917969 342.78125 169.109375 C 353.238281 166.996094 355.914062 152.355469 364.652344 148.085938 C 369.121094 164.203125 358.074219 180.359375 382.527344 177.425781 C 395.828125 175.828125 405.082031 169.4375 414.441406 180.554688 C 416.367188 182.84375 414.664062 188.617188 419.539062 189.003906 C 422.699219 189.253906 422.289062 183.726562 424.300781 182.769531 C 431.699219 179.253906 441.707031 178.910156 446.070312 170.582031 C 453.570312 156.273438 441.503906 131.386719 433.554688 119.472656 C 407.859375 80.964844 344.453125 85.488281 309.480469 107.832031 Z M 309.480469 107.832031 "/>
<path style=" stroke:none;fill-rule:nonzero;fill:rgb(81.17981%,32.939148%,26.269531%);fill-opacity:1;" d="M 371.113281 262.226562 C 380.023438 263.121094 388.238281 258.835938 395.300781 253.800781 C 401.117188 249.65625 409.265625 242.550781 410.875 235.21875 C 411.144531 233.992188 409.648438 232.976562 408.699219 233.953125 C 403.8125 239.007812 400.390625 244.925781 394.914062 249.601562 C 388.203125 255.332031 379.960938 259.058594 371.117188 259.5 C 369.328125 259.585938 369.382812 262.054688 371.113281 262.226562 Z M 371.113281 262.226562 "/>
<path style=" stroke:none;fill-rule:nonzero;fill:rgb(81.17981%,32.939148%,26.269531%);fill-opacity:1;" d="M 459.832031 254.183594 C 462.953125 268.738281 439.800781 295.167969 429.394531 302.449219 C 434.597656 308.6875 446.042969 313.882812 447.085938 322.199219 C 448.125 330.515625 439.800781 334.675781 436.679688 340.914062 C 430.433594 357.546875 434.597656 377.300781 421.070312 391.855469 C 404.417969 364.824219 385.6875 346.113281 355.507812 334.675781 C 340.71875 329.070312 335.976562 319.496094 339.414062 304.730469 C 341.515625 295.71875 351.132812 268.910156 334.425781 271.414062 C 301.933594 282.695312 298.765625 300.367188 298.269531 314.921875 C 297.769531 329.476562 284.738281 351.308594 275.375 367.941406 C 270.171875 376.261719 263.925781 382.5 267.046875 391.855469 C 269.128906 401.210938 278.496094 410.566406 281.617188 418.886719 C 289.941406 437.597656 289.941406 454.230469 295.144531 472.945312 C 276.414062 477.105469 266.007812 436.558594 254.558594 456.3125 C 244.152344 475.023438 256.640625 492.699219 274.332031 496.859375 C 293.0625 501.015625 298.523438 506.714844 315.175781 502.558594 C 327.902344 498.925781 338.152344 489.90625 346.761719 480.210938 C 351.878906 474.445312 354.875 463.511719 362.179688 460 C 375.371094 453.65625 371.347656 477.773438 374.933594 484.714844 C 381.019531 496.472656 397.734375 502.15625 409.976562 504.34375 C 418.03125 505.785156 427.917969 506.339844 433.628906 513.027344 C 441.457031 522.195312 426.863281 529.757812 433.484375 536.378906 C 440.914062 543.808594 468.171875 551.054688 472.058594 557.15625 C 478.304688 566.511719 476.222656 578.988281 487.667969 586.265625 C 509.523438 598.742188 534.5 586.265625 545.949219 567.550781 C 559.476562 544.679688 576.125 539.484375 600.0625 530.125 C 621.917969 520.769531 644.8125 515.570312 645.851562 488.539062 C 647.933594 435.519531 602.144531 396.015625 583.414062 350.269531 C 566.761719 309.722656 567.644531 256.898438 490.632812 242.34375 C 471.53125 238.730469 456.710938 239.628906 459.832031 254.183594 Z M 459.832031 254.183594 "/>
<path style=" stroke:none;fill-rule:nonzero;fill:rgb(87.059021%,57.649231%,48.239136%);fill-opacity:1;" d="M 212.113281 330.949219 C 204.375 322.238281 190.191406 318.503906 178.589844 319.75 C 178.589844 327.214844 187.613281 333.4375 192.769531 338.417969 C 176.011719 340.90625 192.769531 358.332031 196.640625 367.042969 C 200.507812 373.265625 196.640625 373.265625 204.375 379.488281 C 209.53125 383.21875 217.269531 381.976562 222.425781 384.464844 C 245.632812 396.910156 256.359375 429.46875 259.816406 452.914062 C 263.925781 480.761719 299.945312 500.394531 317.835938 465.359375 C 335.730469 430.320312 280.527344 384.125 275.371094 367.945312 C 272.792969 356.742188 279.15625 325.972656 261.105469 323.484375 "/>
<path style=" stroke:none;fill-rule:nonzero;fill:rgb(97.648621%,93.728638%,89.019775%);fill-opacity:1;" d="M 200.25 284.121094 C 190.699219 303.429688 203.253906 356.167969 207.691406 366.148438 C 212.125 376.125 257.898438 377.867188 263.1875 366.148438 C 268.476562 354.429688 273.527344 297.824219 272.164062 290.207031 C 269.460938 275.113281 209.796875 264.8125 200.25 284.121094 Z M 200.25 284.121094 "/>
<path style=" stroke:none;fill-rule:nonzero;fill:rgb(81.17981%,32.939148%,26.269531%);fill-opacity:1;" d="M 258.449219 284.695312 C 250.222656 281.5 228.757812 280.546875 225.511719 280.957031 C 221.601562 281.449219 209.699219 281.554688 207.789062 285.285156 C 205.269531 290.492188 219.675781 291.46875 223.769531 292.351562 C 231.621094 294.042969 252.136719 294.113281 258.984375 290.25 C 263.113281 287.921875 262.050781 286.09375 258.449219 284.695312 Z M 258.449219 284.695312 "/>
<path style=" stroke:none;fill-rule:nonzero;fill:rgb(81.17981%,32.939148%,26.269531%);fill-opacity:1;" d="M 375.753906 119.191406 C 382.484375 121.113281 386.550781 127.058594 388.507812 133.453125 C 390.523438 140.023438 388.714844 144.976562 386.074219 150.875 C 385.519531 152.117188 386.808594 154.054688 388.210938 153.007812 C 394.171875 148.554688 393.46875 138.929688 391.714844 132.570312 C 389.597656 124.898438 384.039062 118.625 375.972656 117.5625 C 375.023438 117.4375 374.886719 118.941406 375.753906 119.191406 Z M 375.753906 119.191406 "/>
<path style=" stroke:none;fill-rule:nonzero;fill:rgb(81.17981%,32.939148%,26.269531%);fill-opacity:1;" d="M 339.390625 116.773438 C 328.558594 118.734375 308.300781 133.765625 317.457031 146.273438 C 321.675781 152.035156 327.78125 146.449219 329.488281 141.539062 C 331.351562 136.179688 331.8125 131.394531 334.871094 126.378906 C 336.644531 123.46875 338.890625 120.890625 340.828125 118.097656 C 341.839844 116.644531 339.703125 115.257812 338.503906 116.308594 C 335.503906 118.9375 333.246094 122.578125 331.199219 125.957031 C 327.675781 131.78125 328.410156 139.855469 323.792969 144.761719 C 320.671875 148.074219 318.636719 142.738281 318.21875 141.265625 C 317.808594 139.824219 318.195312 138.253906 318.574219 136.859375 C 319.476562 133.542969 322.042969 130.683594 324.355469 128.277344 C 328.429688 124.03125 334.066406 119.824219 339.710938 117.933594 C 340.453125 117.683594 340.148438 116.636719 339.390625 116.773438 Z M 339.390625 116.773438 "/>
<path style=" stroke:none;fill-rule:nonzero;fill:rgb(62.748718%,62.748718%,76.078796%);fill-opacity:1;" d="M 396.570312 109.835938 C 416.976562 112.664062 424.390625 139.785156 431.5 155.171875 C 431.78125 155.78125 432.792969 155.621094 432.925781 154.988281 C 434.96875 145.269531 425.828125 132.472656 420.695312 125.078125 C 415.195312 117.15625 407.203125 108.121094 396.789062 108.207031 C 395.882812 108.214844 395.617188 109.703125 396.570312 109.835938 Z M 396.570312 109.835938 "/>
<path style=" stroke:none;fill-rule:nonzero;fill:rgb(62.748718%,62.748718%,76.078796%);fill-opacity:1;" d="M 451.875 518.175781 C 456.570312 507.460938 464.125 500.679688 475.535156 497.628906 C 483.839844 495.40625 491.777344 493.921875 498.101562 487.617188 C 501.820312 483.910156 502.226562 477.664062 503.390625 472.878906 C 505.429688 464.492188 513.570312 460.011719 520.175781 455.5625 C 528.640625 449.851562 530.558594 443.113281 525.929688 433.945312 C 522.238281 426.632812 515.75 420.820312 511.347656 413.914062 C 505.972656 405.488281 506.035156 396.210938 505.136719 386.617188 C 504.875 383.8125 500.949219 383.773438 500.746094 386.617188 C 499.691406 401.179688 504.035156 412.964844 512.796875 424.375 C 517.113281 430 528.136719 439.976562 522.183594 447.648438 C 519.035156 451.699219 513.515625 453.957031 509.539062 457.105469 C 505.71875 460.132812 501.09375 464.285156 499.660156 469.171875 C 498.78125 472.171875 498.140625 475.191406 497.503906 478.25 C 496.023438 485.324219 490.457031 488.769531 484.121094 491.328125 C 475.8125 494.683594 468.230469 495.21875 460.875 500.785156 C 455.347656 504.964844 451.914062 510.824219 449.824219 517.3125 C 449.4375 518.507812 451.359375 519.347656 451.875 518.175781 Z M 451.875 518.175781 "/>
<path style=" stroke:none;fill-rule:nonzero;fill:rgb(62.748718%,62.748718%,76.078796%);fill-opacity:1;" d="M 363.125 438.234375 C 369.957031 429.921875 372.601562 421.546875 369.359375 411.054688 C 367.738281 405.824219 364.613281 400.945312 361.746094 396.335938 C 358.125 390.515625 355.242188 384.125 351.417969 378.484375 C 350.320312 376.867188 347.96875 377.894531 348.328125 379.789062 C 352.5625 402.027344 376.8125 412.269531 361.617188 437.074219 C 361.058594 437.988281 362.425781 439.089844 363.125 438.234375 Z M 363.125 438.234375 "/>
<path style=" stroke:none;fill-rule:nonzero;fill:rgb(81.17981%,32.939148%,26.269531%);fill-opacity:1;" d="M 360.007812 295.390625 C 363.695312 296.527344 367.023438 297.984375 370.324219 299.988281 C 373.445312 301.886719 376.210938 304.691406 379.894531 305.363281 C 380.632812 305.5 381.386719 304.757812 380.925781 304.027344 C 378.890625 300.808594 375.273438 298.910156 372.105469 296.941406 C 368.554688 294.734375 364.585938 292.957031 360.367188 292.742188 C 358.796875 292.660156 358.589844 294.953125 360.007812 295.390625 Z M 360.007812 295.390625 "/>
<path style=" stroke:none;fill-rule:nonzero;fill:rgb(81.17981%,32.939148%,26.269531%);fill-opacity:1;" d="M 412.675781 299.25 C 419.640625 296.835938 425.933594 293.28125 432.3125 289.632812 C 440.148438 285.152344 447.875 282.3125 456.386719 279.496094 C 457.546875 279.113281 457.261719 277.570312 456.109375 277.453125 C 440.246094 275.882812 425.574219 291.441406 411.875 297.351562 C 410.789062 297.816406 411.570312 299.632812 412.675781 299.25 Z M 412.675781 299.25 "/>
<path style=" stroke:none;fill-rule:nonzero;fill:rgb(62.748718%,62.748718%,76.078796%);fill-opacity:1;" d="M 210.207031 584.972656 C 203.941406 580.800781 195.816406 586.398438 191.121094 591.492188 C 186.960938 586.042969 181.035156 578.257812 174.820312 586.011719 C 167.882812 594.675781 184.1875 610.964844 191.472656 616.160156 C 196.675781 608.886719 221.652344 592.25 210.207031 584.972656 Z M 210.207031 584.972656 "/>
<path style=" stroke:none;fill-rule:nonzero;fill:rgb(62.748718%,62.748718%,76.078796%);fill-opacity:1;" d="M 208.679688 302.988281 C 201.570312 313.382812 209.097656 324.671875 218.367188 330.589844 C 222.382812 333.148438 227.742188 337.898438 223.042969 343.039062 C 221.996094 344.1875 220.0625 345.839844 219.769531 347.511719 C 219.117188 351.28125 220.953125 353.136719 224.289062 354.695312 C 225.941406 355.464844 227.300781 353.636719 226.179688 352.246094 C 221.691406 346.667969 233.5625 341.136719 229.394531 334.023438 C 227.507812 330.804688 223.378906 329.027344 220.300781 327.285156 C 211.449219 322.269531 207.53125 313.492188 210.34375 303.6875 C 210.640625 302.652344 209.246094 302.160156 208.679688 302.988281 Z M 208.679688 302.988281 "/>
<path style=" stroke:none;fill-rule:nonzero;fill:rgb(62.748718%,62.748718%,76.078796%);fill-opacity:1;" d="M 596.984375 473.945312 C 597.117188 479.683594 595.230469 486.539062 599.5625 491.140625 C 603.261719 495.070312 607.578125 497.703125 613.027344 495.859375 C 622.1875 492.757812 622.402344 480.183594 615.550781 475.003906 C 614.578125 474.265625 612.832031 475.007812 612.628906 476.191406 C 610.972656 485.871094 616.820312 494.835938 627.558594 490.105469 C 633.558594 487.464844 635.609375 482.363281 636.808594 476.175781 C 638.46875 467.625 638.808594 459.289062 641.078125 450.808594 C 641.507812 449.191406 639.566406 448.199219 638.386719 449.242188 C 633.570312 453.515625 633.425781 460.65625 632.9375 466.664062 C 632.511719 471.933594 632.328125 477.25 630.105469 482.144531 C 628.558594 485.554688 624.894531 486.765625 621.535156 486.996094 C 615.847656 487.386719 615.867188 480.949219 616.460938 477.246094 C 615.488281 477.640625 614.515625 478.039062 613.542969 478.433594 C 621.714844 484.480469 612.542969 497.398438 603.714844 490.214844 C 598.011719 485.574219 602.171875 478.757812 598.679688 473.488281 C 598.203125 472.761719 596.964844 472.996094 596.984375 473.945312 Z M 596.984375 473.945312 "/>
<path style=" stroke:none;fill-rule:nonzero;fill:rgb(81.17981%,32.939148%,26.269531%);fill-opacity:1;" d="M 632.621094 619.492188 C 633.03125 629.027344 646.238281 648.972656 657.578125 639.0625 C 667.007812 630.820312 658.511719 613.121094 655.714844 603.605469 C 655.414062 602.574219 654.480469 601.851562 653.398438 601.84375 C 652.9375 601.84375 652.472656 601.832031 652.011719 601.808594 C 651.238281 601.785156 650.226562 602.273438 649.902344 603.015625 C 645.507812 613.109375 648.753906 627.382812 661.207031 629.109375 C 675.515625 631.089844 682.210938 610.90625 685.304688 600.46875 C 685.640625 599.339844 684.246094 598.101562 683.203125 598.855469 C 677.019531 603.316406 675.417969 611.816406 671.878906 618.257812 C 668.039062 625.253906 659.195312 626.003906 654.691406 619.289062 C 652.960938 616.710938 652.765625 613.449219 652.804688 610.476562 C 653.058594 609.289062 653.308594 608.101562 653.558594 606.914062 C 653 606.402344 652.304688 606.15625 651.472656 606.179688 C 653.628906 613.269531 656.324219 620.164062 656.996094 627.605469 C 657.574219 633.996094 653.726562 639.179688 646.46875 635.390625 C 640.917969 632.496094 636.222656 625.144531 635.273438 619.136719 C 635.035156 617.621094 632.558594 617.992188 632.621094 619.492188 Z M 632.621094 619.492188 "/>
</g>
</svg>
